
<svg width="107px" height="107px" viewBox="0 0 107 107" version="1.1" xmlns="http://www.w3.org/2000/svg" xmlns:xlink="http://www.w3.org/1999/xlink">
    <g id="Service" stroke="none" stroke-width="1" fill="none" fill-rule="evenodd">
        <g id="Services" transform="translate(-1321.000000, -7437.000000)" fill="#626262" fill-rule="nonzero">
            <g id="artificial-intelligence" transform="translate(1321.000000, 7437.000000)">
                <path d="M106.187574,44.2690962 C106.035225,43.4189505 105.29563,42.8001497 104.432107,42.8001497 L94.9268799,42.8001497 C93.9400567,38.9245466 92.4004703,35.2113239 90.3553512,31.7745867 L97.0794169,25.0505356 C97.6909046,24.4394672 97.7757522,23.4777241 97.2804597,22.7690603 C93.7344163,17.6836506 89.3166999,13.2657348 84.2310701,9.71969904 C83.5224048,9.2248256 82.5608686,9.30967299 81.9495899,9.92074138 L75.2255242,16.6447925 C71.7887795,14.5996778 68.0753398,13.0600948 64.1999373,12.0732737 L64.1999373,2.56806724 C64.1999373,1.70454652 63.5811352,0.964953139 62.7309876,0.812604008 C56.6242611,-0.265334007 50.3758434,-0.265334007 44.2689079,0.812604008 C44.1376659,0.844369534 44.0106035,0.891181886 43.8902286,0.952414116 C38.8459777,-0.816842038 33.2621296,-0.0948032937 28.833755,2.89930643 C24.4055894,5.89341615 21.6553578,10.8064144 21.4181607,16.1467843 C20.9964307,16.1931787 20.582642,16.2648601 20.1711522,16.343438 C20.0959179,16.3578578 20.0177578,16.3639184 19.9427325,16.3793832 C19.4386627,16.4830391 18.9437881,16.612191 18.4578999,16.7620324 C18.3042966,16.8094717 18.1573807,16.8713308 18.0056582,16.9233678 C17.6762991,17.03601 17.3473581,17.1486522 17.0280302,17.2817749 C16.84705,17.357218 16.6740111,17.446454 16.4965835,17.5281667 C16.2169627,17.6571096 15.9369239,17.7845897 15.6660804,17.9287885 C15.4807114,18.0276378 15.3032839,18.1379812 15.1220946,18.2437269 C14.8711046,18.3906425 14.6199056,18.5369311 14.377484,18.6968036 C14.1975486,18.8152974 14.0253457,18.9429864 13.8504259,19.0685857 C13.6192894,19.2345187 13.3896158,19.4017057 13.1678836,19.5793419 C12.9981885,19.7153903 12.8349718,19.8583351 12.6709193,20.001071 C12.4592183,20.1853946 12.2502341,20.3720171 12.0481464,20.5669989 C11.8901544,20.719557 11.737596,20.8767128 11.5860824,21.0357494 C11.393399,21.2376277 11.2053133,21.4430587 11.0232881,21.6547592 C10.8797159,21.8215282 10.7399055,21.9912229 10.6036478,22.1636345 C10.430191,22.3828584 10.2636306,22.60668 10.1014589,22.8346812 C9.97397854,23.0141982 9.84858804,23.1945512 9.72842214,23.3795018 C9.57502776,23.6154444 9.43082868,23.8566116 9.28976436,24.1009136 C9.17983869,24.2910888 9.070122,24.480846 8.96771976,24.6756188 C8.83522379,24.9282801 8.71463993,25.187002 8.59530996,25.4473957 C8.50461083,25.6455122 8.41161288,25.8419569 8.32864616,26.0444621 C8.21767557,26.315723 8.12154285,26.5934624 8.02520115,26.8718287 C7.95540043,27.0739159 7.8805841,27.2730774 7.8185158,27.4785084 C7.72948854,27.7735934 7.65864291,28.0759929 7.58675236,28.3777654 C7.53952193,28.575464 7.48414113,28.7700278 7.44443414,28.9706522 C7.37693225,29.3102507 7.33179167,29.6567457 7.2864421,30.0036587 C7.2640808,30.1741894 7.23064333,30.3411674 7.21371561,30.513161 C7.16230551,31.0356203 7.13325671,31.5643491 7.13325671,32.0999744 C7.12427039,34.2510438 7.55603168,36.3812148 8.40199961,38.3590367 C8.29019308,38.4286283 8.19322442,38.5145206 8.08308976,38.586202 C7.79301973,38.7763772 7.51548875,38.9824351 7.23753981,39.188911 C6.59637637,39.6601693 5.9873965,40.1740603 5.41477987,40.7266132 C5.34894985,40.7905623 5.27747727,40.8484507 5.21269217,40.9134447 C4.87769055,41.2478186 4.56776702,41.6010011 4.26202318,41.9594082 C4.16024789,42.0789469 4.05805463,42.1978586 3.9594141,42.3203231 C3.66202963,42.6885524 3.37781115,43.0636781 3.11135634,43.4536418 C3.03716696,43.5618953 2.97050101,43.6747465 2.89861045,43.784463 C2.12662292,44.9689827 1.50008838,46.2421115 1.03279977,47.5764725 C0.921411209,47.891829 0.812530456,48.2078124 0.71848758,48.5309012 C0.633222038,48.8274491 0.557360784,49.1258778 0.487351087,49.4278593 C0.390173447,49.8414381 0.312013367,50.2610774 0.24451148,50.6851053 C0.206058393,50.9289893 0.161126796,51.1697386 0.132704949,51.4163394 C0.107626848,51.6295028 0.0906991302,51.844129 0.073353444,52.0593823 C0.0679198555,52.0953275 0.0463944859,52.1241672 0.0430507392,52.1609484 C0.00271679422,52.6075466 0,53.0533088 0,53.500116 C0.00773241432,58.6283675 2.21857596,63.5060474 6.07015423,66.8920016 C5.28103,68.1822671 4.66954231,69.5728448 4.25220093,71.0265355 C4.22816775,71.1086661 4.20413457,71.1901698 4.18135529,71.2725093 C3.99765821,71.9412572 3.85492202,72.6208723 3.75440063,73.3069658 C3.73789088,73.420235 3.72744167,73.5343401 3.71323075,73.6480273 C3.61981482,74.3587809 3.57091253,75.0747591 3.56673284,75.7915733 C3.53183249,83.6836344 8.97754201,90.5433159 16.6717122,92.2996151 C16.7229134,92.4977316 16.7920871,92.6874889 16.8491398,92.8830976 C16.9049386,93.0734818 16.9605284,93.263448 17.0219697,93.4513244 C17.1621981,93.8826667 17.3193542,94.3048139 17.4877954,94.7215274 C17.5419223,94.854859 17.5908246,94.9902804 17.6476683,95.1223582 C18.3682457,96.7967357 19.3197507,98.3620238 20.4743882,99.7726638 C20.5448159,99.8587651 20.6194232,99.9408957 20.6913138,100.025952 C21.0012373,100.392092 21.3232819,100.746319 21.6574476,101.088634 C21.7675823,101.201277 21.8798068,101.311202 21.9926582,101.421127 C22.3050895,101.72499 22.6271342,102.017776 22.958792,102.299486 C23.0921239,102.413173 23.223784,102.527696 23.3600416,102.637831 C23.6975511,102.910136 24.0463457,103.167395 24.4012008,103.416922 C24.5366225,103.512427 24.6672376,103.613576 24.8053762,103.705528 C25.2902194,104.028408 25.7863479,104.334778 26.299195,104.613981 C26.3928199,104.664973 26.4920874,104.706142 26.5865483,104.755672 C27.0080693,104.976567 27.4356509,105.186387 27.8736818,105.376562 C28.0916523,105.471441 28.3161013,105.552318 28.5382514,105.639255 C28.8669835,105.767989 29.1969695,105.89317 29.533643,106.004349 C29.7773186,106.084808 30.0239199,106.156907 30.2717751,106.227962 C30.6080307,106.324512 30.9476299,106.412077 31.290155,106.490445 C31.5336215,106.546244 31.7766701,106.600998 32.0232715,106.647601 C32.4078023,106.720328 32.7967219,106.775917 33.1879402,106.825864 C33.3990143,106.852614 33.6075805,106.886679 33.8207443,106.906532 C34.4301422,106.964003 35.0447646,106.999948 35.6669105,106.999948 C38.2430584,107.000993 40.7941281,106.49149 43.172368,105.501117 C43.4379869,105.860569 43.8300412,106.105706 44.2693259,106.187628 C50.3756344,107.270791 56.625097,107.270791 62.7314055,106.187628 C63.5815531,106.035279 64.2003553,105.295895 64.2003553,104.432165 L64.2003553,94.9267494 C68.0759667,93.9399283 71.7891975,92.4003452 75.2259422,90.3552306 L81.9500079,97.0792817 C82.5606596,97.691604 83.5230317,97.7764514 84.231488,97.280324 C89.3169089,93.7342883 93.7348342,89.3165815 97.2808776,84.2309627 C97.7761701,83.5222989 97.6913226,82.5605559 97.0798349,81.9494875 L90.3557692,75.2254364 C92.4008883,71.7886991 93.9404747,68.0752674 94.9272979,64.1998734 L104.432525,64.1998734 C105.296048,64.1998734 106.035643,63.5810726 106.187992,62.7309268 C107.270739,56.6246316 107.270739,50.3753915 106.187574,44.2690962 Z M35.6667015,103.433223 C35.1484208,103.433223 34.6368275,103.403756 34.1308768,103.355481 C33.9484336,103.338135 33.7697522,103.306787 33.5891899,103.283172 C33.270907,103.241794 32.953042,103.198116 32.6406107,103.138138 C32.4266109,103.096968 32.2159549,103.04514 32.0046719,102.995611 C31.7313206,102.931453 31.4592232,102.863951 31.1913055,102.786 C30.9743799,102.722678 30.7597532,102.653504 30.5465893,102.581405 C30.2884939,102.494259 30.0333242,102.400634 29.7814983,102.30074 C29.5764848,102.219654 29.3720983,102.136897 29.1710555,102.047452 C28.9098253,101.931257 28.6544466,101.805448 28.4009488,101.675879 C28.2226853,101.584971 28.04275,101.49678 27.8682482,101.399393 C27.5721176,101.233878 27.2847644,101.054988 27.0005459,100.8715 C26.880798,100.794385 26.7568704,100.723331 26.6390033,100.64329 C25.8139338,100.080706 25.0429912,99.4430965 24.3355797,98.7384034 C24.3128005,98.7156242 24.2919021,98.6907551 24.2691228,98.6677669 C23.9433165,98.3384086 23.6317211,97.9956753 23.3345456,97.639567 C23.2816726,97.576036 23.2323523,97.5093702 23.1803153,97.4450032 C22.9209659,97.1235862 22.6720657,96.793392 22.4375855,96.4525395 C22.3771891,96.3647664 22.3199274,96.2746944 22.2609939,96.1856673 C22.0469941,95.8604887 21.8442794,95.5275776 21.6534769,95.1867251 C21.5937074,95.0793075 21.5347739,94.9714719 21.4770943,94.8628004 C21.3017565,94.5317702 21.1400028,94.1925896 20.9876533,93.8483934 C20.9331085,93.724884 20.8768917,93.6020016 20.8254816,93.4768204 C20.6854622,93.1368039 20.5613256,92.788846 20.4442945,92.4375443 C20.3997809,92.3031678 20.3504606,92.1712991 20.3092907,92.0352507 C20.1979021,91.6684843 20.1061581,91.2937765 20.0208926,90.9165608 C19.9930977,90.7934694 19.9577793,90.6735128 19.9329102,90.5491675 C19.0286357,86.0664667 20.080662,81.4107275 22.8250422,77.7526765 C23.4137506,76.9654348 23.2540867,75.8500887 22.4680972,75.2595007 C21.6821077,74.6689127 20.5663412,74.8260685 19.9740801,75.6105934 C17.4152779,79.0009362 16.0368183,83.135888 16.0495664,87.3834821 C16.0495664,87.7364556 16.0840487,88.0806518 16.1026483,88.4292366 C10.7150364,86.5722073 7.1081786,81.4905592 7.13304772,75.7919912 C7.13283874,75.0574135 7.19239923,74.3240896 7.31131122,73.5991251 C7.32385027,73.5222191 7.35227212,73.4511646 7.36627406,73.3746766 C7.74077369,71.2877652 8.61558143,69.3226913 9.91525399,67.6476868 C9.92737507,67.632013 9.92946491,67.6113236 9.94095904,67.5954408 C11.6243265,65.4163676 13.941752,63.8126266 16.5741166,63.0049045 C17.5157993,62.715462 18.0443203,61.7173558 17.7548772,60.7756752 C17.4654341,59.8339945 16.4673257,59.3054747 15.525643,59.5949172 C12.7630813,60.4415102 10.2632126,61.9808843 8.26386107,64.0667508 C5.27956711,61.3635464 3.57383831,57.5270233 3.56631488,53.500325 C3.57091253,52.9020046 3.61250038,52.3045202 3.69086944,51.7114244 C3.71448465,51.5222941 3.74583228,51.3354627 3.77697092,51.1486312 C3.84363687,50.7429938 3.93120124,50.3440439 4.03172262,49.9492737 C4.08313273,49.7494852 4.12618347,49.5465621 4.18616193,49.3503263 C4.33454069,48.8613044 4.50904247,48.3806419 4.70945829,47.9104285 C4.82607146,47.6372868 4.96212015,47.3748033 5.09524307,47.1108568 C5.2057957,46.889961 5.32031902,46.6713641 5.44215679,46.4567378 C5.60600038,46.1698031 5.77381467,45.8851673 5.95646684,45.6109807 C6.06158588,45.452989 6.178826,45.3033567 6.29021456,45.1495446 C6.63733727,44.6713899 7.01350878,44.2151784 7.41663924,43.7832091 C7.57442229,43.6145592 7.7301155,43.4444465 7.89667588,43.28332 C8.11506434,43.0709926 8.34118521,42.8670245 8.57253069,42.6689079 C8.82749138,42.4517738 9.09331924,42.2452979 9.36499867,42.0450915 C9.58004338,41.8856369 9.79383419,41.7259734 10.0176562,41.5786399 C10.4318629,41.3082149 10.8596535,41.0591063 11.2991472,40.83215 C13.3170983,39.7824248 15.5582446,39.2340515 17.8328283,39.2336336 C18.8177707,39.2336336 19.6160902,38.4353158 19.6160902,37.4503755 C19.6160902,36.4654352 18.8175617,35.6671174 17.8328283,35.6671174 C15.710385,35.6712971 13.6061234,36.057081 11.6201469,36.8056607 C11.0063603,35.313099 10.693511,33.7141646 10.6993626,32.1003923 C10.7001985,26.4498906 14.496187,21.5044999 19.9542266,20.0426588 C25.4122662,18.5808177 31.1718699,20.9669937 33.996918,25.8605565 C34.3160368,26.4120645 34.9053722,26.7514541 35.5425649,26.7508271 C36.1797576,26.7502002 36.7682571,26.4095567 37.08654,25.8574217 C37.4046139,25.3052867 37.4039869,24.6252537 37.0846591,24.0737457 C34.5294096,19.6823708 30.0523417,16.753882 25.005165,16.1724893 C25.4179088,8.94938506 31.5029009,3.36596707 38.7347981,3.57432384 C45.9666953,3.7826806 51.7200296,9.707369 51.7160589,16.9423853 L51.7160589,27.9623057 L43.9731953,38.8029181 L37.4230045,35.9285561 C37.4273931,35.8401559 37.4493365,35.7567714 37.4493365,35.6673264 C37.4754595,33.0569108 35.6322191,30.8009316 33.0690283,30.3062671 C30.5058374,29.8116026 27.9553946,31.2199439 27.0084873,33.6525144 C26.06158,36.0852938 26.9888428,38.8470137 29.2120164,40.2154391 C31.43519,41.5838644 34.3185446,41.1675689 36.0639804,39.2265281 L42.5408178,42.0691246 C42.9886709,42.2651514 43.4722603,42.3662995 43.9610743,42.3660905 C45.1161298,42.3673444 46.2011756,41.8124926 46.8764034,40.8754096 L51.7160589,34.0993216 L51.7160589,48.1505508 L37.1208134,48.1505508 C36.2522751,45.6939472 33.7402854,44.220403 31.1720789,44.6609407 C28.6038725,45.1014784 26.7267766,47.3281999 26.7267766,49.9338089 C26.7267766,52.5394179 28.6038725,54.7661394 31.1720789,55.2066771 C33.7402854,55.6472147 36.2522751,54.1736705 37.1208134,51.7170669 L51.7160589,51.7170669 L51.7160589,58.8503082 L47.8208029,58.8503082 C46.9522647,56.3937046 44.440275,54.9201604 41.8720685,55.3606981 C39.303862,55.8012357 37.4267662,58.0279573 37.4267662,60.6335662 C37.4267662,63.2391752 39.303862,65.4658967 41.8720685,65.9064344 C44.440275,66.3469721 46.9522647,64.8734279 47.8208029,62.4168243 L51.7160589,62.4168243 L51.7160589,69.5500655 L37.1281278,69.5500655 C35.4295045,69.5534093 33.9676602,70.7515129 33.6311957,72.4166952 L32.372275,78.7104488 C29.9027091,79.4621633 28.3309391,81.8803139 28.6460873,84.4422453 C28.9614444,87.0043856 31.0726025,88.9690416 33.6506312,89.0996564 C36.2286599,89.2302712 38.5276948,87.4890189 39.1003114,84.97181 C39.6729281,82.4546011 38.353611,79.8901619 35.9726543,78.8926826 L37.1279188,73.1165817 L51.7158499,73.1165817 L51.7158499,87.3832731 C51.7064456,96.2431378 44.5265854,103.422982 35.6667015,103.433223 Z M33.8834396,35.6666995 C33.8834396,36.6516397 33.084911,37.4499575 32.1001776,37.4499575 C31.1152352,37.4499575 30.3169157,36.6516397 30.3169157,35.6666995 C30.3169157,34.6817592 31.1154442,33.8834414 32.1001776,33.8834414 C33.0844931,33.8846953 33.8821857,34.6823862 33.8834396,35.6666995 Z M33.8834396,49.9333909 C33.8834396,50.9183312 33.084911,51.716649 32.1001776,51.716649 C31.1152352,51.716649 30.3169157,50.9183312 30.3169157,49.9333909 C30.3169157,48.9484507 31.1154442,48.1501329 32.1001776,48.1501329 C33.0844931,48.1513868 33.8821857,48.9490776 33.8834396,49.9333909 Z M44.5834291,60.6333573 C44.5834291,61.6182975 43.7849006,62.4166153 42.8001672,62.4166153 C41.8154338,62.4166153 41.0169053,61.6182975 41.0169053,60.6333573 C41.0169053,59.648417 41.8152248,58.8500992 42.8001672,58.8500992 C43.7844826,58.8513531 44.5821752,59.649044 44.5834291,60.6333573 Z M35.6667015,83.816548 C35.6667015,84.8014883 34.868382,85.5998061 33.8834396,85.5998061 C32.8984972,85.5998061 32.1001776,84.8014883 32.1001776,83.816548 C32.1001776,82.8316078 32.8984972,82.03329 33.8834396,82.03329 C34.867755,82.0345439 35.6654476,82.8322347 35.6667015,83.816548 Z M102.915927,60.6333573 L93.5179087,60.6333573 C92.6805091,60.6331483 91.955961,61.2157949 91.7764436,62.0335482 C90.806339,66.4721534 89.0521259,70.7021928 86.5961439,74.524714 C86.1426483,75.230243 86.2423337,76.1564588 86.8356398,76.7495546 L93.4848892,83.3987896 C90.6333002,87.2351037 87.2352175,90.6333879 83.3986861,93.4849707 L76.7494368,86.8357358 C76.1561307,86.2432669 75.2303308,86.1435817 74.5245913,86.5962404 C70.7020618,89.0520081 66.4720132,90.8062174 62.0333984,91.7765288 C61.2154344,91.9560459 60.6327865,92.6808014 60.6329955,93.5179902 L60.6329955,102.916197 C56.2614646,103.541058 51.8261935,103.580556 47.4442134,103.033646 C52.3735231,99.3404855 55.2773581,93.5428592 55.2830007,87.3836911 L55.2830007,78.3767018 C68.3426305,77.4555016 78.4664507,66.592528 78.4664507,53.500534 C78.4664507,40.40854 68.3426305,29.5455664 55.2830007,28.6243661 L55.2830007,16.9417584 C55.2823737,11.8352412 52.9743526,7.00270173 49.0032353,3.79250284 C52.8778019,3.43346881 56.7812082,3.53148218 60.6329955,4.08403513 L60.6329955,13.4822419 C60.6327865,14.3196397 61.2154344,15.0441862 62.0331894,15.2237032 C66.4718042,16.1938056 70.7018528,17.948015 74.5243823,20.4039916 C75.2297039,20.8583222 76.1565487,20.758637 76.7492278,20.1644963 L83.3984771,13.5152613 C87.2347996,16.3668441 90.6330912,19.7649194 93.4846802,23.6014425 L86.8354308,30.2506774 C86.2423337,30.8435642 86.1426483,31.7697801 86.595935,32.4755181 C89.051708,36.2980393 90.8059211,40.5280787 91.7762346,44.9666839 C91.955752,45.7846462 92.6805091,46.3672928 93.5176997,46.3670838 L102.915927,46.3670838 C103.605575,51.0972212 103.605575,55.9028018 102.915927,60.6333573 Z M65.9834082,53.500116 C65.97275,47.30145 61.41794,42.0482263 55.2834187,41.1592095 L55.2834187,32.1904643 C66.3700289,33.1093657 74.8999269,42.3754948 74.8999269,53.500116 C74.8999269,64.6247373 66.3700289,73.8908663 55.2834187,74.8097678 L55.2834187,65.8410225 C61.41794,64.9517968 65.972541,59.6987821 65.9834082,53.500116 Z M55.2834187,62.2364714 L55.2834187,44.7637607 C59.4348892,45.6111897 62.4166754,49.2629711 62.4166754,53.500116 C62.4166754,57.7370519 59.4348892,61.3890424 55.2834187,62.2364714 Z" id="Shape"></path>
            </g>
        </g>
    </g>
</svg>