
<svg width="120px" height="107px" viewBox="0 0 120 107" version="1.1" xmlns="http://www.w3.org/2000/svg" xmlns:xlink="http://www.w3.org/1999/xlink">
    <g id="Service" stroke="none" stroke-width="1" fill="none" fill-rule="evenodd">
        <g id="Services" transform="translate(-984.000000, -7437.000000)" fill="#626262" fill-rule="nonzero">
            <g id="virtual-reality" transform="translate(984.000000, 7437.000000)">
                <path d="M59.8288695,27.7303409 C45.9573196,27.7303409 34.5851481,39.2925908 34.5851481,53.3959944 C34.5851481,67.4993981 45.9573196,79.0616479 59.8288695,79.0616479 C73.7004194,79.0616479 85.0725909,67.4993981 85.0725909,53.3959944 C85.0725909,39.2925908 73.7004194,27.7303409 59.8288695,27.7303409 Z M59.8288695,74.8687441 C48.2067601,74.8687441 38.7091224,65.2123596 38.7091224,53.3959944 C38.7091224,41.5796292 48.2067601,31.9232447 59.8288695,31.9232447 C71.4509789,31.9232447 80.9486166,41.5796292 80.9486166,53.3959944 C80.9486166,65.2123596 71.4509789,74.8687441 59.8288695,74.8687441 Z" id="Shape"></path>
                <path d="M73.7004194,49.8383791 C73.4504816,48.8219176 72.825637,48.1866291 71.9508545,48.1866291 C71.0760721,48.0595714 70.3262586,48.4407445 69.9513519,49.2030906 C69.2015384,50.6007252 67.8268803,51.3630714 66.2022843,51.3630714 C63.8278749,51.3630714 61.8283722,49.457206 61.8283722,47.0431099 C61.8283722,45.5184176 62.5781857,44.120783 63.9528438,43.2313792 C64.7026573,42.8502061 65.0775641,41.9608023 64.9525951,41.1984561 C64.8276262,40.3090523 64.2027816,39.6737639 63.4529681,39.4196485 C62.07831,39.0384754 60.9535898,38.9114177 59.8288695,38.9114177 C51.9558277,38.9114177 45.4574439,45.5184176 45.4574439,53.5230521 C45.4574439,61.5276866 51.9558277,68.1346865 59.8288695,68.1346865 C67.7019113,68.1346865 74.2002951,61.5276866 74.2002951,53.5230521 C74.2002951,52.3795329 74.0753262,51.108956 73.7004194,49.8383791 Z M59.8288695,63.814725 C54.2052682,63.814725 49.5814182,59.1135905 49.5814182,53.3959944 C49.5814182,48.0595714 53.5804236,43.6125523 58.7041492,43.1043215 C58.0793046,44.2478407 57.8293668,45.6454753 57.8293668,46.9160522 C57.8293668,51.6171868 61.5784344,55.4289175 66.2022843,55.4289175 C67.5769424,55.4289175 68.8266316,55.0477444 69.9513519,54.5395136 C69.4514762,59.7488789 65.0775641,63.814725 59.8288695,63.814725 Z" id="Shape"></path>
                <path d="M119.314074,54.0312829 C119.439043,53.6501098 119.439043,53.141879 119.314074,52.760706 C119.314074,52.5065906 113.315566,33.9561678 92.0708503,23.5374372 L107.816934,7.52816816 L107.691965,24.1727256 C107.691965,25.3162448 108.566748,26.3327064 109.691468,26.3327064 C110.816188,26.3327064 111.69097,25.4433025 111.69097,24.2997833 L111.940908,2.44586054 C111.940908,1.93762978 111.69097,1.30234133 111.316064,0.921168256 C110.941157,0.539995185 110.441281,0.412937494 109.816437,0.285879804 L88.5717206,0.539995185 C87.4470004,0.539995185 86.572218,1.55645671 86.572218,2.69997592 C86.572218,3.84349514 87.4470004,4.73289897 88.6966896,4.73289897 L104.942649,4.60584128 L88.071845,21.7586295 C80.448741,18.7092449 71.201041,16.6763219 59.8288695,16.6763219 C48.456698,16.6763219 39.208998,18.7092449 31.585894,21.7586295 L14.7150901,4.60584128 L31.0860184,4.73289897 C32.2107386,4.73289897 33.085521,3.84349514 33.085521,2.69997592 C33.085521,1.55645671 32.2107386,0.539995185 31.0860184,0.539995185 L9.59136446,0.285879804 C8.96651987,0.285879804 8.4666442,0.539995185 8.09173744,0.921168256 C7.71683069,1.30234133 7.46689285,1.81057209 7.46689285,2.44586054 L7.84179961,24.1727256 C7.84179961,25.3162448 8.71658203,26.2056487 9.84130229,26.2056487 C10.9660226,26.2056487 11.840805,25.3162448 11.840805,24.0456679 L11.7158361,7.52816816 L27.3369508,23.4103795 C6.09223475,33.8291101 0.218695607,52.3795329 0.0937266885,52.6336483 C-0.0312422295,53.0148214 -0.0312422295,53.5230521 0.0937266885,53.9042252 C0.218695607,54.1583406 6.09223475,72.7087634 27.3369508,83.127494 L11.5908671,99.136763 L11.9657739,82.6192632 C11.9657739,81.475744 11.0909915,80.4592825 9.96627121,80.4592825 C8.84155095,80.4592825 7.84179961,81.3486863 7.84179961,82.4922055 L7.59186177,104.346128 C7.59186177,104.854359 7.84179961,105.489648 8.21670636,105.870821 C8.59161311,106.251994 9.09148879,106.506109 9.71633338,106.506109 L31.2109873,106.251994 C32.3357075,106.251994 33.21049,105.235532 33.21049,104.092013 C33.21049,102.948494 32.3357075,102.05909 31.2109873,102.05909 L14.9650279,102.186148 L31.7108629,85.160417 C39.3339669,88.2098016 48.5816669,90.2427247 59.9538384,90.2427247 C71.32601,90.2427247 80.5737099,88.2098016 88.1968139,85.160417 L105.067618,102.313205 L88.5717206,102.05909 C87.4470004,102.05909 86.447249,102.948494 86.447249,104.092013 C86.447249,105.235532 87.3220315,106.251994 88.4467517,106.251994 L109.941406,106.506109 C110.441281,106.506109 111.066126,106.251994 111.441033,105.870821 C111.815939,105.489648 112.065877,104.981417 112.065877,104.346128 L111.815939,82.6192632 C111.815939,81.475744 110.816188,80.5863402 109.691468,80.5863402 C108.566748,80.5863402 107.691965,81.475744 107.691965,82.7463209 L107.816934,99.2638207 L92.0708503,83.2545517 C113.315566,72.8358211 119.189106,54.2853983 119.314074,54.0312829 Z M87.9468761,80.7133979 C87.8219071,80.7133979 87.6969382,80.8404556 87.5719693,80.8404556 C80.1988031,83.8898401 71.0760721,85.9227632 59.7039006,85.9227632 C48.331729,85.9227632 39.208998,83.8898401 31.8358319,80.8404556 C31.7108629,80.8404556 31.585894,80.7133979 31.4609251,80.7133979 C12.2157117,72.3275903 5.717328,56.8265521 4.46763882,53.3959944 C6.09223475,48.8219176 18.2142198,20.8692257 59.8288695,20.8692257 C71.201041,20.8692257 80.3237721,22.9021487 87.6969382,25.9515333 C87.8219071,25.9515333 87.9468761,26.078591 88.071845,26.078591 C107.566996,34.3373409 114.06538,49.9654368 115.315069,53.3959944 C113.940411,56.8265521 107.442027,72.3275903 87.9468761,80.7133979 Z" id="Shape"></path>
            </g>
        </g>
    </g>
</svg>