
<svg width="105px" height="100px" viewBox="0 0 105 100" version="1.1" xmlns="http://www.w3.org/2000/svg" xmlns:xlink="http://www.w3.org/1999/xlink">
    <g id="Service" stroke="none" stroke-width="1" fill="none" fill-rule="evenodd">
        <g id="Services" transform="translate(-274.000000, -5327.000000)" fill="#6EC2FF" fill-rule="nonzero">
            <g id="Icon_サイバーセキュリティ" transform="translate(274.000000, 5327.000000)">
                <path d="M52.5,76.3888889 L51.45,75.7275132 C38.85,66.9642857 30.975,53.5714286 30.1,38.8558201 L29.75,30.2579365 L52.5,23.1481481 L75.25,30.2579365 L74.725,38.8558201 C73.85,53.5714286 66.15,67.1296296 53.375,75.7275132 L52.5,76.3888889 Z M33.25,32.5727513 L33.6,38.6904762 C34.3,52.0833333 41.3,64.3187831 52.5,72.4206349 C63.7,64.3187831 70.525,52.0833333 71.4,38.6904762 L71.75,32.5727513 L52.5,26.4550265 L33.25,32.5727513 Z" id="Shape"></path>
                <path d="M52.5,0 C49.525,0 47.25,2.1494709 47.25,4.96031746 C47.25,7.10978836 48.65,8.92857143 50.75,9.58994709 L50.75,19.8412698 L54.25,19.8412698 L54.25,9.58994709 C56.35,8.92857143 57.75,7.10978836 57.75,4.96031746 C57.75,2.1494709 55.475,0 52.5,0 Z M52.5,6.61375661 C51.45,6.61375661 50.75,5.95238095 50.75,4.96031746 C50.75,3.96825397 51.45,3.30687831 52.5,3.30687831 C53.55,3.30687831 54.25,3.96825397 54.25,4.96031746 C54.25,5.95238095 53.55,6.61375661 52.5,6.61375661 Z" id="Shape"></path>
                <path d="M82.25,4.96031746 C82.25,2.1494709 79.975,0 77,0 C74.025,0 71.75,2.1494709 71.75,4.96031746 C71.75,7.10978836 73.15,8.92857143 75.25,9.58994709 L75.25,13.2275132 L61.25,13.2275132 L61.25,19.8412698 L64.75,19.8412698 L64.75,16.5343915 L78.75,16.5343915 L78.75,9.58994709 C80.85,8.92857143 82.25,7.10978836 82.25,4.96031746 Z M77,6.61375661 C75.95,6.61375661 75.25,5.95238095 75.25,4.96031746 C75.25,3.96825397 75.95,3.30687831 77,3.30687831 C78.05,3.30687831 78.75,3.96825397 78.75,4.96031746 C78.75,5.95238095 78.05,6.61375661 77,6.61375661 Z" id="Shape"></path>
                <path d="M29.75,9.58994709 C31.85,8.92857143 33.25,7.10978836 33.25,4.96031746 C33.25,2.1494709 30.975,0 28,0 C25.025,0 22.75,2.1494709 22.75,4.96031746 C22.75,7.10978836 24.15,8.92857143 26.25,9.58994709 L26.25,16.5343915 L40.25,16.5343915 L40.25,19.8412698 L43.75,19.8412698 L43.75,13.2275132 L29.75,13.2275132 L29.75,9.58994709 Z M28,3.30687831 C29.05,3.30687831 29.75,3.96825397 29.75,4.96031746 C29.75,5.95238095 29.05,6.61375661 28,6.61375661 C26.95,6.61375661 26.25,5.95238095 26.25,4.96031746 C26.25,3.96825397 26.95,3.30687831 28,3.30687831 Z" id="Shape"></path>
                <path d="M0,49.6031746 C0,52.4140212 2.275,54.5634921 5.25,54.5634921 C7.525,54.5634921 9.45,52.9100529 10.15,51.2566138 L21,51.2566138 L21,47.9497354 L10.15,47.9497354 C9.45,46.2962963 7.525,44.6428571 5.25,44.6428571 C2.275,44.6428571 0,46.792328 0,49.6031746 Z M7,49.6031746 C7,50.5952381 6.3,51.2566138 5.25,51.2566138 C4.2,51.2566138 3.5,50.5952381 3.5,49.6031746 C3.5,48.6111111 4.2,47.9497354 5.25,47.9497354 C6.3,47.9497354 7,48.6111111 7,49.6031746 Z" id="Shape"></path>
                <path d="M5.25,21.494709 C2.275,21.494709 0,23.6441799 0,26.4550265 C0,29.265873 2.275,31.4153439 5.25,31.4153439 C7.525,31.4153439 9.45,29.7619048 10.15,28.1084656 L14,28.1084656 L14,41.3359788 L21,41.3359788 L21,38.0291005 L17.5,38.0291005 L17.5,24.8015873 L10.15,24.8015873 C9.45,23.1481481 7.525,21.494709 5.25,21.494709 Z M7,26.4550265 C7,27.4470899 6.3,28.1084656 5.25,28.1084656 C4.2,28.1084656 3.5,27.4470899 3.5,26.4550265 C3.5,25.462963 4.2,24.8015873 5.25,24.8015873 C6.3,24.8015873 7,25.462963 7,26.4550265 Z" id="Shape"></path>
                <path d="M10.15,71.0978836 C9.45,69.4444444 7.525,67.7910053 5.25,67.7910053 C2.275,67.7910053 0,69.9404762 0,72.7513228 C0,75.5621693 2.275,77.7116402 5.25,77.7116402 C7.525,77.7116402 9.45,76.0582011 10.15,74.4047619 L17.5,74.4047619 L17.5,61.1772487 L21,61.1772487 L21,57.8703704 L14,57.8703704 L14,71.0978836 L10.15,71.0978836 Z M3.5,72.7513228 C3.5,71.7592593 4.2,71.0978836 5.25,71.0978836 C6.3,71.0978836 7,71.7592593 7,72.7513228 C7,73.7433862 6.3,74.4047619 5.25,74.4047619 C4.2,74.4047619 3.5,73.7433862 3.5,72.7513228 Z" id="Shape"></path>
                <path d="M52.5,99.2063492 C55.475,99.2063492 57.75,97.0568783 57.75,94.2460317 C57.75,92.0965608 56,90.2777778 54.25,89.6164021 L54.25,79.3650794 L50.75,79.3650794 L50.75,89.6164021 C49,90.2777778 47.25,92.0965608 47.25,94.2460317 C47.25,97.0568783 49.525,99.2063492 52.5,99.2063492 Z M52.5,92.5925926 C53.55,92.5925926 54.25,93.2539683 54.25,94.2460317 C54.25,95.2380952 53.55,95.8994709 52.5,95.8994709 C51.45,95.8994709 50.75,95.2380952 50.75,94.2460317 C50.75,93.2539683 51.45,92.5925926 52.5,92.5925926 Z" id="Shape"></path>
                <path d="M22.75,94.2460317 C22.75,97.0568783 25.025,99.2063492 28,99.2063492 C30.975,99.2063492 33.25,97.0568783 33.25,94.2460317 C33.25,92.0965608 31.5,90.2777778 29.75,89.6164021 L29.75,85.978836 L43.75,85.978836 L43.75,79.3650794 L40.25,79.3650794 L40.25,82.6719577 L26.25,82.6719577 L26.25,89.6164021 C24.5,90.2777778 22.75,92.0965608 22.75,94.2460317 Z M28,92.5925926 C29.05,92.5925926 29.75,93.2539683 29.75,94.2460317 C29.75,95.2380952 29.05,95.8994709 28,95.8994709 C26.95,95.8994709 26.25,95.2380952 26.25,94.2460317 C26.25,93.2539683 26.95,92.5925926 28,92.5925926 Z" id="Shape"></path>
                <path d="M75.25,89.6164021 C73.5,90.2777778 71.75,92.0965608 71.75,94.2460317 C71.75,97.0568783 74.025,99.2063492 77,99.2063492 C79.975,99.2063492 82.25,97.0568783 82.25,94.2460317 C82.25,92.0965608 80.5,90.2777778 78.75,89.6164021 L78.75,82.6719577 L64.75,82.6719577 L64.75,79.3650794 L61.25,79.3650794 L61.25,85.978836 L75.25,85.978836 L75.25,89.6164021 Z M77,95.8994709 C75.95,95.8994709 75.25,95.2380952 75.25,94.2460317 C75.25,93.2539683 75.95,92.5925926 77,92.5925926 C78.05,92.5925926 78.75,93.2539683 78.75,94.2460317 C78.75,95.2380952 78.05,95.8994709 77,95.8994709 Z" id="Shape"></path>
                <path d="M105,49.6031746 C105,46.792328 102.725,44.6428571 99.75,44.6428571 C97.475,44.6428571 95.55,46.2962963 94.85,47.9497354 L84,47.9497354 L84,51.2566138 L94.85,51.2566138 C95.55,52.9100529 97.475,54.5634921 99.75,54.5634921 C102.725,54.5634921 105,52.4140212 105,49.6031746 Z M98,49.6031746 C98,48.6111111 98.7,47.9497354 99.75,47.9497354 C100.8,47.9497354 101.5,48.6111111 101.5,49.6031746 C101.5,50.5952381 100.8,51.2566138 99.75,51.2566138 C98.7,51.2566138 98,50.5952381 98,49.6031746 Z" id="Shape"></path>
                <path d="M99.75,77.7116402 C102.725,77.7116402 105,75.5621693 105,72.7513228 C105,69.9404762 102.725,67.7910053 99.75,67.7910053 C97.475,67.7910053 95.55,69.4444444 94.85,71.0978836 L91,71.0978836 L91,57.8703704 L84,57.8703704 L84,61.1772487 L87.5,61.1772487 L87.5,74.4047619 L94.85,74.4047619 C95.55,76.0582011 97.475,77.7116402 99.75,77.7116402 Z M98,72.7513228 C98,71.7592593 98.7,71.0978836 99.75,71.0978836 C100.8,71.0978836 101.5,71.7592593 101.5,72.7513228 C101.5,73.7433862 100.8,74.4047619 99.75,74.4047619 C98.7,74.4047619 98,73.7433862 98,72.7513228 Z" id="Shape"></path>
                <path d="M94.85,28.1084656 C95.55,29.7619048 97.475,31.4153439 99.75,31.4153439 C102.725,31.4153439 105,29.265873 105,26.4550265 C105,23.6441799 102.725,21.494709 99.75,21.494709 C97.475,21.494709 95.55,23.1481481 94.85,24.8015873 L87.5,24.8015873 L87.5,38.0291005 L84,38.0291005 L84,41.3359788 L91,41.3359788 L91,28.1084656 L94.85,28.1084656 Z M101.5,26.4550265 C101.5,27.4470899 100.8,28.1084656 99.75,28.1084656 C98.7,28.1084656 98,27.4470899 98,26.4550265 C98,25.462963 98.7,24.8015873 99.75,24.8015873 C100.8,24.8015873 101.5,25.462963 101.5,26.4550265 Z" id="Shape"></path>
            </g>
        </g>
    </g>
</svg>