<svg xmlns="http://www.w3.org/2000/svg" xmlns:xlink="http://www.w3.org/1999/xlink" width="121px" height="117px" viewBox="0 0 121 117" version="1.1">
    <path d="M118.06812,34.2131185 L101.609004,5.70723024 C99.7325401,2.4530765 95.4846817,0 91.7264131,0 L58.8776138,0 C56.575652,0 54.7027488,0.954171992 53.7413726,2.61863246 C52.7799965,4.28309293 52.8885964,6.38191528 54.0386871,8.3757075 L58.7191648,16.4950703 L46.4901039,16.4950703 C42.7336156,16.4950703 38.4857572,18.9481468 36.607513,22.2005204 L31.4783931,31.0817966 L27.6079639,24.3687694 C24.3161407,18.6615392 24.3161407,18.6615392 22.7387717,18.6615392 C21.1614026,18.6615392 21.1614026,18.6615392 17.8677991,24.3669892 L1.40868313,52.8728775 C-0.469561043,56.125251 -0.469561043,61.0314041 1.40868313,64.2837776 L17.8695794,92.7896659 C21.163183,98.4951159 21.163183,98.4951159 22.7316504,98.4951159 C24.2983375,98.4951159 24.2983375,98.4951159 27.5955016,92.7932262 L31.4801735,86.0748585 L36.6092933,94.9561347 C38.4875375,98.2085083 42.7353959,100.661585 46.4918842,100.661585 L58.5749584,100.661585 L53.972815,108.624292 C52.820944,110.618085 52.7105638,112.716907 53.6701596,114.379587 C54.6297554,116.045828 56.5026586,117 58.8046204,117 L91.6694426,117 C95.425931,117 99.6755697,114.546923 101.552034,111.29455 L117.977323,82.8491875 C119.127414,80.8553953 119.237794,78.7547928 118.276418,77.0921125 C117.316822,75.4258718 115.443919,74.4716998 113.141957,74.4699197 L103.624333,74.462799 L109.50297,64.2819974 C111.381215,61.0296239 111.381215,56.125251 109.50297,52.8710973 L103.594068,42.6368906 L113.724124,42.6440113 C113.747268,42.6440113 113.768632,42.6440113 113.791776,42.6440113 C119.714922,42.6440113 119.720263,42.640451 120.519629,41.3729688 L120.624668,41.1931714 C121.327897,39.8616031 121.327897,39.8616031 118.06812,34.2131185 Z M22.9702141,90.1194084 C22.8900994,90.2582618 22.8117651,90.395335 22.7316504,90.5306281 C22.653316,90.395335 22.5749817,90.2582618 22.4930867,90.1194084 L6.03219035,61.61174 C5.11532234,60.0238269 5.11532234,57.131048 6.03219035,55.5413548 L22.4930867,27.0354665 C22.5749817,26.8930528 22.6568767,26.7524192 22.7369914,26.6135658 C22.817106,26.7524192 22.899001,26.8930528 22.980896,27.0354665 L28.3948681,36.4223115 L18.8968277,52.8728775 C17.0185835,56.125251 17.0185835,61.0314041 18.8968277,64.2819974 L28.3966484,80.7325634 L22.9702141,90.1194084 Z M23.5221152,61.6135202 C22.6052472,60.0256071 22.6052472,57.1328282 23.5221152,55.5449151 L31.4766128,41.7681669 L39.4382317,55.5733978 C40.3550997,57.1630911 40.3533194,60.05587 39.4346711,61.6437831 L31.4819538,75.3991693 L23.5221152,61.6135202 Z M41.2328006,92.2858773 L34.5636985,80.737904 L44.0581783,64.3158207 C45.9382028,61.0634471 45.9399831,56.1590743 44.0635193,52.9049206 L34.5619182,36.4240917 L41.2345809,24.8689976 C41.3093546,24.7390451 41.4108332,24.6126529 41.5034101,24.4862607 L61.1777953,58.6068103 L41.4945085,92.6543728 C41.4037119,92.5333212 41.3057939,92.4122695 41.2328006,92.2858773 Z M113.138397,79.8104345 C113.293285,79.8104345 113.417908,79.8228957 113.517606,79.8389173 C113.482,79.9314862 113.42859,80.0454172 113.352036,80.1789301 L96.926746,108.624292 C96.009878,110.213986 93.504959,111.659485 91.6694426,111.659485 L58.8046204,111.659485 C58.6532927,111.659485 58.5286699,111.648804 58.4325323,111.632783 C58.4681388,111.540214 58.5197682,111.428063 58.5963223,111.29811 L64.7455691,100.661585 L81.9114746,100.661585 C85.6679629,100.661585 89.9176016,98.2085083 91.7940655,94.9561347 L100.544369,79.8015337 L113.138397,79.8104345 Z M67.8326547,95.3210699 L75.0589989,82.8207048 C75.9758669,81.2327917 78.4825662,79.7890725 80.3180826,79.7890725 L94.3773188,79.7997535 L87.1669976,92.2876575 C86.2483493,93.8773507 83.7434303,95.3228501 81.9096942,95.3228501 L67.8326547,95.3228501 L67.8326547,95.3210699 Z M104.877683,61.6135202 L97.4590635,74.4610188 L80.3145219,74.4485576 C76.5598139,74.4485576 72.3119555,76.8980738 70.431931,80.146887 L61.6584834,95.3210699 L46.4883236,95.3210699 C46.376163,95.3210699 46.2551008,95.2997079 46.1393796,95.2890268 L65.7995222,61.2806281 L105.016548,61.3055505 C104.97204,61.4088004 104.932873,61.5191711 104.877683,61.6135202 Z M104.877683,55.5431349 C104.952457,55.6730875 105.011207,55.8226219 105.073519,55.9668158 L65.8030828,55.9418934 L46.1554026,21.8658481 C46.2657828,21.8569472 46.3832843,21.8355852 46.4901039,21.8355852 L61.7991292,21.8355852 L70.4942425,36.9136389 C72.3707063,40.1677926 76.6167844,42.6226493 80.3732727,42.6244294 L97.4252373,42.6351105 L104.877683,55.5431349 Z M67.9643989,21.8355852 L81.9096942,21.8355852 C83.7434303,21.8355852 86.2501296,23.2810845 87.1669976,24.8707778 L94.339932,37.2945956 L80.375053,37.2856947 C78.541317,37.2856947 76.0346177,35.836635 75.11953,34.2469418 L67.9643989,21.8355852 Z M100.508762,37.2981559 L91.7922851,22.2023005 C89.9158213,18.9481468 85.6679629,16.4950703 81.9096942,16.4950703 L64.8862148,16.4950703 L58.665755,5.70901041 C58.589201,5.57549754 58.5357912,5.46156655 58.5001846,5.36899763 C58.5981026,5.35297608 58.7227254,5.34229505 58.8776138,5.34229505 L91.7264131,5.34229505 C93.5601491,5.34229505 96.0668484,6.78779441 96.9837164,8.37748768 L113.442832,36.8833759 C113.524727,37.0257897 113.606622,37.1682034 113.686737,37.3070568 L100.508762,37.2981559 Z" id="Shape-Copy" fill="#0092FF" fill-rule="nonzero"/>
</svg>
