
<svg width="100px" height="100px" viewBox="0 0 100 100" version="1.1" xmlns="http://www.w3.org/2000/svg" xmlns:xlink="http://www.w3.org/1999/xlink">
    <g id="Service" stroke="none" stroke-width="1" fill="none" fill-rule="evenodd">
        <g id="Services" transform="translate(-750.000000, -5327.000000)" fill="#6EC2FF" fill-rule="nonzero">
            <g id="icon_IoT" transform="translate(750.000000, 5327.000000)">
                <path d="M98.1453704,44.4444444 C97.2490741,44.4444444 96.4601852,43.7907407 96.3175926,42.8759259 C92.8546296,20.5444444 72.9435185,3.7037037 49.9990741,3.7037037 C48.9768519,3.7037037 48.1472222,2.87592593 48.1472222,1.85185185 C48.1472222,0.827777778 48.9768519,0 49.9990741,0 C74.7527778,0 96.237963,18.1888889 99.9787037,42.3092593 C100.134259,43.3203704 99.4435185,44.2648148 98.4324074,44.4222222 C98.3361111,44.437037 98.2398148,44.4444444 98.1453704,44.4444444" id="Shape"></path>
                <path d="M50,23.1922399 C35.2176367,23.1922399 23.1922399,35.2176367 23.1922399,50 C23.1922399,64.7823633 35.2176367,76.8077601 50,76.8077601 C64.7823633,76.8077601 76.8077601,64.7823633 76.8077601,50 C76.8077601,35.2176367 64.7823633,23.1922399 50,23.1922399 M50,79.6296296 C33.6613757,79.6296296 20.3703704,66.3372134 20.3703704,50 C20.3703704,33.6627866 33.6613757,20.3703704 50,20.3703704 C66.3386243,20.3703704 79.6296296,33.6627866 79.6296296,50 C79.6296296,66.3372134 66.3386243,79.6296296 50,79.6296296" id="Shape"></path>
                <path d="M50,23.1922399 C45.3283951,23.1922399 40.1234568,34.2017637 40.1234568,50 C40.1234568,65.7982363 45.3283951,76.8077601 50,76.8077601 C54.6716049,76.8077601 59.8765432,65.7982363 59.8765432,50 C59.8765432,34.2017637 54.6716049,23.1922399 50,23.1922399 M50,79.6296296 C42.8790123,79.6296296 37.3015873,66.6137566 37.3015873,50 C37.3015873,33.3862434 42.8790123,20.3703704 50,20.3703704 C57.1209877,20.3703704 62.6984127,33.3862434 62.6984127,50 C62.6984127,66.6137566 57.1209877,79.6296296 50,79.6296296" id="Shape"></path>
                <path d="M76.8749475,57.0546737 L23.1250525,57.0546737 C22.3833039,57.0546737 21.7813051,56.4239859 21.7813051,55.643739 C21.7813051,54.8634921 22.3833039,54.2328042 23.1250525,54.2328042 L76.8749475,54.2328042 C77.6166961,54.2328042 78.2186949,54.8634921 78.2186949,55.643739 C78.2186949,56.4239859 77.6166961,57.0546737 76.8749475,57.0546737" id="Shape"></path>
                <path d="M76.8749475,47.1781305 L23.1250525,47.1781305 C22.3833039,47.1781305 21.7813051,46.5474427 21.7813051,45.7671958 C21.7813051,44.9869489 22.3833039,44.356261 23.1250525,44.356261 L76.8749475,44.356261 C77.6166961,44.356261 78.2186949,44.9869489 78.2186949,45.7671958 C78.2186949,46.5474427 77.6166961,47.1781305 76.8749475,47.1781305" id="Shape"></path>
                <path d="M50,100 C25.2481481,100 3.76296296,81.8111111 0.0222222222,57.6907407 C-0.135185185,56.6796296 0.557407407,55.7351852 1.56851852,55.5777778 C2.57222222,55.4222222 3.52407407,56.1111111 3.68148148,57.1240741 C7.14444444,79.4555556 27.0574074,96.2962963 50,96.2962963 C51.0222222,96.2962963 51.8518519,97.1240741 51.8518519,98.1481481 C51.8518519,99.1722222 51.0222222,100 50,100" id="Shape"></path>
                <path d="M1.85185185,51.8518519 C0.82962963,51.8518519 0,51.0240741 0,50 C0,25.2481481 18.1888889,3.76111111 42.3092593,0.0222222222 C43.3074074,-0.135185185 44.2648148,0.557407407 44.4222222,1.56851852 C44.5796296,2.57962963 43.887037,3.52407407 42.8759259,3.68148148 C20.5444444,7.14444444 3.7037037,27.0574074 3.7037037,50 C3.7037037,51.0240741 2.87407407,51.8518519 1.85185185,51.8518519" id="Shape"></path>
                <path d="M57.4046296,100 C56.5083333,100 55.7194444,99.3462963 55.5768519,98.4314815 C55.4212963,97.4203704 56.112037,96.4759259 57.1231481,96.3185185 C79.4564815,92.8555556 96.2953704,72.9425926 96.2953704,50 C96.2953704,48.9759259 97.125,48.1481481 98.1472222,48.1481481 C99.1712963,48.1481481 99.9990741,48.9759259 99.9990741,50 C99.9990741,74.7518519 81.812037,96.2388889 57.6916667,99.9777778 C57.5953704,99.9925926 57.4990741,100 57.4046296,100" id="Shape"></path>
            </g>
        </g>
    </g>
</svg>