
<svg width="105px" height="107px" viewBox="0 0 105 107" version="1.1" xmlns="http://www.w3.org/2000/svg" xmlns:xlink="http://www.w3.org/1999/xlink">
    <g id="Service" stroke="none" stroke-width="1" fill="none" fill-rule="evenodd">
        <g id="Services" transform="translate(-662.000000, -7437.000000)" fill="#626262" fill-rule="nonzero">
            <g id="web" transform="translate(662.000000, 7437.000000)">
                <path d="M93.7041667,0 L10.8958333,0 C4.88133333,0.00579583333 0.00708229167,3.99466667 0,8.91666667 L0,57.0666667 C0.00708229167,61.9886667 4.88133333,65.9775375 10.8958333,65.9833333 L40.6937583,65.9833333 L37.5819083,74.9 L30.5083333,74.9 L30.5083333,78.4666667 L74.0916667,78.4666667 L74.0916667,74.9 L67.0180917,74.9 L63.9062417,65.9833333 L93.7041667,65.9833333 C99.7186667,65.9775375 104.592918,61.9886667 104.6,57.0666667 L104.6,8.91666667 C104.592918,3.99466667 99.7186667,0.00579583333 93.7041667,0 Z M42.114575,74.9 L45.226425,65.9833333 L59.373575,65.9833333 L62.485425,74.9 L42.114575,74.9 Z M100.241667,57.0666667 C100.241667,60.0214271 97.3147734,62.4166667 93.7041667,62.4166667 L10.8958333,62.4166667 C7.28522656,62.4166667 4.35833333,60.0214271 4.35833333,57.0666667 L4.35833333,53.5 L100.241667,53.5 L100.241667,57.0666667 Z M100.241667,49.9333333 L4.35833333,49.9333333 L4.35833333,8.91666667 C4.35833333,5.96190625 7.28522656,3.56666667 10.8958333,3.56666667 L93.7041667,3.56666667 C97.3147734,3.56666667 100.241667,5.96190625 100.241667,8.91666667 L100.241667,49.9333333 Z" id="Shape"></path>
                <path d="M69.7333333,82.0333333 L8.71666667,82.0333333 C7.51322187,82.0333333 6.5375,82.8318208 6.5375,83.8166667 L6.5375,105.216667 C6.5375,106.201513 7.51322187,107 8.71666667,107 L69.7333333,107 C70.9367781,107 71.9125,106.201513 71.9125,105.216667 L71.9125,83.8166667 C71.9125,82.8318208 70.9367781,82.0333333 69.7333333,82.0333333 Z M67.5541667,103.433333 L10.8958333,103.433333 L10.8958333,85.6 L67.5541667,85.6 L67.5541667,103.433333 Z" id="Shape"></path>
                <rect id="Rectangle-path" x="15.2541667" y="96.3" width="4.35833333" height="3.56666667"></rect>
                <rect id="Rectangle-path" x="15.2541667" y="89.1666667" width="4.35833333" height="3.56666667"></rect>
                <rect id="Rectangle-path" x="23.9708333" y="89.1666667" width="4.35833333" height="3.56666667"></rect>
                <rect id="Rectangle-path" x="32.6875" y="89.1666667" width="4.35833333" height="3.56666667"></rect>
                <rect id="Rectangle-path" x="50.1208333" y="89.1666667" width="4.35833333" height="3.56666667"></rect>
                <rect id="Rectangle-path" x="41.4041667" y="89.1666667" width="4.35833333" height="3.56666667"></rect>
                <rect id="Rectangle-path" x="58.8375" y="96.3" width="4.35833333" height="3.56666667"></rect>
                <rect id="Rectangle-path" x="58.8375" y="89.1666667" width="4.35833333" height="3.56666667"></rect>
                <rect id="Rectangle-path" x="23.9708333" y="96.3" width="30.5083333" height="3.56666667"></rect>
                <path d="M87.1666667,82.0333333 C81.1491703,82.0333333 76.2708333,86.0255479 76.2708333,90.95 L76.2708333,98.0833333 C76.2708333,103.007785 81.1491703,107 87.1666667,107 C93.184163,107 98.0625,103.007785 98.0625,98.0833333 L98.0625,90.95 C98.0625,86.0255479 93.184163,82.0333333 87.1666667,82.0333333 Z M93.7041667,98.0833333 C93.7041667,101.038094 90.7772734,103.433333 87.1666667,103.433333 C83.5560599,103.433333 80.6291667,101.038094 80.6291667,98.0833333 L80.6291667,90.95 C80.6291667,87.9952396 83.5560599,85.6 87.1666667,85.6 C90.7772734,85.6 93.7041667,87.9952396 93.7041667,90.95 L93.7041667,98.0833333 Z" id="Shape"></path>
                <rect id="Rectangle-path" x="84.9875" y="89.1666667" width="4.35833333" height="3.56666667"></rect>
                <rect id="Rectangle-path" transform="translate(52.285281, 28.563677) rotate(-74.031780) translate(-52.285281, -28.563677) " x="36.4279957" y="26.7811511" width="31.7145707" height="3.56505272"></rect>
                <path d="M40.6196667,20.9862667 L37.8303333,18.2470667 L24.7553333,27.1637333 C23.8310943,27.7945875 23.7066094,28.9189792 24.4774896,29.6755583 C24.5616599,29.7580375 24.6545469,29.834275 24.7553333,29.9029333 L37.8303333,38.8196 L40.6196667,36.0804 L29.5538583,28.5333333 L40.6196667,20.9862667 Z" id="Shape"></path>
                <path d="M80.1225104,27.3911083 C80.0383401,27.3086292 79.9454531,27.2323917 79.8446667,27.1637333 L66.7696667,18.2470667 L63.9803333,20.9862667 L75.0461417,28.5333333 L63.9803333,36.0804 L66.7696667,38.8196 L79.8446667,29.9029333 C80.7689057,29.2720792 80.8933906,28.1476875 80.1225104,27.3911083 Z" id="Shape"></path>
            </g>
        </g>
    </g>
</svg>