<?xml version="1.0" encoding="UTF-8"?>
<svg width="253px" height="53px" viewBox="0 0 253 53" version="1.1" xmlns="http://www.w3.org/2000/svg" xmlns:xlink="http://www.w3.org/1999/xlink">
    <!-- Generator: Sketch 51.3 (57544) - http://www.bohemiancoding.com/sketch -->
    <title>Untitled</title>
    <desc>Created with Sketch.</desc>
    <defs></defs>
    <g id="Page-1" stroke="none" stroke-width="1" fill="none" fill-rule="evenodd">
        <g id="blocktechjapan_white" fill="#FFFFFF" fill-rule="nonzero">
            <path d="M76.1367877,23.9790749 C76.8118782,23.9790749 77.3934239,23.9023502 77.8814411,23.7488987 C78.3694583,23.5954471 78.7700336,23.3794067 79.0831778,23.1007709 C79.3963221,22.8221352 79.6260935,22.4910078 79.7724989,22.1073789 C79.9189043,21.7237499 79.9921056,21.3017644 79.9921056,20.8414097 C79.9921056,19.9449294 79.6708323,19.2362361 79.0282762,18.7153084 C78.38572,18.1943807 77.4219,17.9339207 76.1367877,17.9339207 L72.354672,17.9339207 L72.354672,23.9790749 L76.1367877,23.9790749 Z M72.354672,10.3381057 L72.354672,16.2621145 L75.4779676,16.2621145 C76.1449245,16.2621145 76.7244368,16.189428 77.2165207,16.0440529 C77.7086047,15.8986777 78.1152798,15.6967708 78.4365581,15.438326 C78.7578364,15.1798812 78.9957409,14.8669255 79.1502799,14.4994493 C79.3048189,14.1319732 79.382087,13.7301784 79.382087,13.2940529 C79.382087,12.2683502 79.073014,11.5192755 78.4548586,11.0468062 C77.8367032,10.5743368 76.87695,10.3381057 75.5755705,10.3381057 L72.354672,10.3381057 Z M75.5755705,8.4845815 C76.6492088,8.4845815 77.5743943,8.58957312 78.3511554,8.79955947 C79.1279166,9.00954582 79.766396,9.30836811 80.266614,9.69603524 C80.766832,10.0837024 81.1348726,10.5581837 81.3707478,11.1194934 C81.606623,11.6808031 81.7245586,12.3127718 81.7245586,13.0154185 C81.7245586,13.4434676 81.657457,13.8533387 81.5232525,14.2450441 C81.3890479,14.6367494 81.1877436,15.0022009 80.919334,15.3414097 C80.6509244,15.6806184 80.311351,15.9854979 79.9006028,16.2560573 C79.4898547,16.5266166 79.0079449,16.7466952 78.4548586,16.9162996 C79.7399709,17.1585915 80.7058243,17.6128821 81.3524473,18.279185 C81.9990702,18.9454879 82.3223769,19.8197449 82.3223769,20.9019824 C82.3223769,21.6369347 82.1861408,22.3072657 81.9136644,22.9129956 C81.6411881,23.5187255 81.2426466,24.0396454 80.7180278,24.4757709 C80.1934091,24.9118965 79.548829,25.249081 78.7842687,25.4873348 C78.0197084,25.7255886 77.1494237,25.8447137 76.1733888,25.8447137 L70,25.8447137 L70,8.4845815 L75.5755705,8.4845815 Z M87.5075355,8 L87.5075355,25.8447137 L85.3358691,25.8447137 L85.3358691,8 L87.5075355,8 Z M96.2308024,13.3788546 C97.1336345,13.3788546 97.9469846,13.5282658 98.670877,13.8270925 C99.3947694,14.1259192 100.012915,14.5499238 100.525334,15.0991189 C101.037752,15.648314 101.430193,16.3125879 101.70267,17.0919604 C101.975146,17.8713328 102.111382,18.7415517 102.111382,19.7026432 C102.111382,20.671811 101.975146,21.544049 101.70267,22.3193833 C101.430193,23.0947175 101.037752,23.7569723 100.525334,24.3061674 C100.012915,24.8553625 99.3947694,25.277348 98.670877,25.5721366 C97.9469846,25.8669251 97.1336345,26.0143172 96.2308024,26.0143172 C95.3198366,26.0143172 94.5003864,25.8669251 93.7724272,25.5721366 C93.0444679,25.277348 92.4242886,24.8553625 91.9118702,24.3061674 C91.3994519,23.7569723 91.0070106,23.0947175 90.7345342,22.3193833 C90.4620579,21.544049 90.3258217,20.671811 90.3258217,19.7026432 C90.3258217,18.7415517 90.4620579,17.8713328 90.7345342,17.0919604 C91.0070106,16.3125879 91.3994519,15.648314 91.9118702,15.0991189 C92.4242886,14.5499238 93.0444679,14.1259192 93.7724272,13.8270925 C94.5003864,13.5282658 95.3198366,13.3788546 96.2308024,13.3788546 Z M96.2308024,24.3303965 C97.450846,24.3303965 98.3617977,23.9245635 98.9636859,23.1128855 C99.5655742,22.3012074 99.8665136,21.1685095 99.8665136,19.7147577 C99.8665136,18.2529295 99.5655742,17.1141744 98.9636859,16.2984581 C98.3617977,15.4827419 97.450846,15.0748899 96.2308024,15.0748899 C95.6126469,15.0748899 95.0738026,15.1798815 94.6142529,15.3898678 C94.1547033,15.5998542 93.7724285,15.9027146 93.4674178,16.2984581 C93.1624071,16.6942017 92.9346691,17.1807974 92.7841969,17.7582599 C92.6337248,18.3357224 92.55849,18.9878818 92.55849,19.7147577 C92.55849,21.1685095 92.8614628,22.3012074 93.4674178,23.1128855 C94.0733729,23.9245635 94.9944915,24.3303965 96.2308024,24.3303965 Z M113.457729,15.753304 C113.39266,15.8421444 113.327592,15.9107927 113.262523,15.9592511 C113.197454,16.0077095 113.107986,16.0319383 112.994115,16.0319383 C112.872111,16.0319383 112.737908,15.9814616 112.591503,15.8805066 C112.445097,15.7795516 112.264127,15.6685028 112.048586,15.5473568 C111.833045,15.4262108 111.568706,15.315162 111.255562,15.214207 C110.942418,15.1132521 110.55811,15.0627753 110.102627,15.0627753 C109.492605,15.0627753 108.955794,15.169786 108.492177,15.3838106 C108.028561,15.5978351 107.640186,15.9067528 107.327042,16.3105727 C107.013898,16.7143926 106.778026,17.2030074 106.61942,17.7764317 C106.460814,18.349856 106.381513,18.9919201 106.381513,19.7026432 C106.381513,20.4456719 106.466915,21.1059076 106.637721,21.68337 C106.808527,22.2608325 107.050499,22.7454092 107.363643,23.1371145 C107.676787,23.5288199 108.054995,23.8276421 108.498278,24.0335903 C108.94156,24.2395385 109.439737,24.342511 109.992823,24.342511 C110.521509,24.342511 110.956651,24.2799199 111.298263,24.1547357 C111.639875,24.0295515 111.922515,23.8902357 112.146189,23.7367841 C112.369864,23.5833326 112.556934,23.4440168 112.707406,23.3188326 C112.857879,23.1936484 113.006315,23.1310573 113.15272,23.1310573 C113.33166,23.1310573 113.469929,23.1997056 113.567533,23.3370044 L114.177551,24.1244493 C113.909142,24.4555817 113.604136,24.7382514 113.262523,24.972467 C112.920911,25.2066825 112.55287,25.4025322 112.15839,25.560022 C111.763909,25.7175118 111.351134,25.8325988 110.920052,25.9052863 C110.48897,25.9779739 110.049761,26.0143172 109.602411,26.0143172 C108.829717,26.0143172 108.111936,25.8729823 107.449046,25.5903084 C106.786155,25.3076344 106.21071,24.8977633 105.722693,24.3606828 C105.234676,23.8236023 104.852401,23.1633666 104.575858,22.3799559 C104.299314,21.5965453 104.161045,20.7041166 104.161045,19.7026432 C104.161045,18.7900101 104.289147,17.9460391 104.545357,17.1707048 C104.801566,16.3953706 105.175707,15.7270586 105.667791,15.1657489 C106.159875,14.6044392 106.765821,14.1663011 107.485647,13.8513216 C108.205472,13.536342 109.033056,13.3788546 109.968423,13.3788546 C110.83872,13.3788546 111.605303,13.5181704 112.268193,13.7968062 C112.931083,14.0754419 113.518728,14.4691604 114.031147,14.9779736 L113.457729,15.753304 Z M118.691689,8 L118.691689,18.503304 L119.252907,18.503304 C119.415579,18.503304 119.551815,18.4810942 119.661619,18.436674 C119.771423,18.3922538 119.887326,18.3013957 120.00933,18.1640969 L123.913449,14.0088106 C124.02732,13.8715118 124.147289,13.7645011 124.27336,13.6877753 C124.399431,13.6110495 124.568202,13.5726872 124.779676,13.5726872 L126.743936,13.5726872 L122.193196,18.3821586 C121.973589,18.6567562 121.737717,18.8707775 121.485575,19.0242291 C121.63198,19.1211459 121.76415,19.2321947 121.882087,19.3573789 C122.000024,19.482563 122.11186,19.625917 122.217597,19.7874449 L127.048945,25.8447137 L125.109086,25.8447137 C124.922012,25.8447137 124.761376,25.8144276 124.627171,25.7538546 C124.492966,25.6932816 124.377064,25.5822328 124.27946,25.4207048 L120.216736,20.3931718 C120.094732,20.2235674 119.974762,20.1125186 119.856825,20.060022 C119.738888,20.0075254 119.557917,19.9812775 119.313908,19.9812775 L118.691689,19.9812775 L118.691689,25.8447137 L116.507823,25.8447137 L116.507823,8 L118.691689,8 Z M141.237979,10.4592511 L135.577006,10.4592511 L135.577006,25.8447137 L133.222334,25.8447137 L133.222334,10.4592511 L127.54916,10.4592511 L127.54916,8.4845815 L141.237979,8.4845815 L141.237979,10.4592511 Z M151.583896,18.3700441 C151.583896,17.8693073 151.512728,17.4109786 151.370389,16.9950441 C151.22805,16.5791095 151.020646,16.2197152 150.74817,15.9168502 C150.475694,15.6139853 150.144253,15.3797732 149.75384,15.214207 C149.363426,15.0486409 148.92015,14.965859 148.423999,14.965859 C147.382895,14.965859 146.559378,15.2667004 145.953423,15.8683921 C145.347468,16.4700838 144.971294,17.3039594 144.824889,18.3700441 L151.583896,18.3700441 Z M153.340749,24.1244493 C153.07234,24.4475053 152.751066,24.7281559 152.37692,24.9664097 C152.002773,25.2046635 151.602198,25.4005132 151.175183,25.5539648 C150.748168,25.7074163 150.306925,25.8225033 149.851443,25.8992291 C149.39596,25.9759549 148.94455,26.0143172 148.497201,26.0143172 C147.643171,26.0143172 146.856255,25.8709633 146.136429,25.5842511 C145.416603,25.2975389 144.794391,24.8775725 144.269772,24.3243392 C143.745153,23.7711059 143.336445,23.0866414 143.043634,22.2709251 C142.750824,21.4552088 142.604421,20.5183607 142.604421,19.4603524 C142.604421,18.6042542 142.73659,17.8047027 143.000933,17.061674 C143.265276,16.3186453 143.645517,15.6745622 144.141668,15.1294053 C144.637819,14.5842484 145.243765,14.1562057 145.959523,13.8452643 C146.675282,13.534323 147.480499,13.3788546 148.375197,13.3788546 C149.115357,13.3788546 149.800604,13.5020179 150.43096,13.748348 C151.061316,13.9946782 151.606261,14.3500344 152.06581,14.8144273 C152.52536,15.2788202 152.885267,15.8522359 153.145543,16.5346916 C153.405819,17.2171473 153.535955,17.994489 153.535955,18.8667401 C153.535955,19.2059488 153.499355,19.4320846 153.426152,19.5451542 C153.352949,19.6582238 153.21468,19.7147577 153.011339,19.7147577 L144.751687,19.7147577 C144.776087,20.490092 144.883856,21.1644612 145.074996,21.7378855 C145.266136,22.3113098 145.532509,22.7898292 145.874121,23.1734581 C146.215733,23.5570871 146.622408,23.8437949 147.094158,24.0335903 C147.565908,24.2233857 148.094586,24.3182819 148.680207,24.3182819 C149.225159,24.3182819 149.694869,24.2556908 150.08935,24.1305066 C150.48383,24.0053224 150.823404,23.8700448 151.108081,23.7246696 C151.392758,23.5792944 151.630663,23.4440168 151.821803,23.3188326 C152.012943,23.1936484 152.177646,23.1310573 152.315918,23.1310573 C152.494858,23.1310573 152.633127,23.1997056 152.730731,23.3370044 L153.340749,24.1244493 Z M164.7969,15.753304 C164.731831,15.8421444 164.666763,15.9107927 164.601694,15.9592511 C164.536625,16.0077095 164.447156,16.0319383 164.333285,16.0319383 C164.211281,16.0319383 164.077079,15.9814616 163.930673,15.8805066 C163.784268,15.7795516 163.603297,15.6685028 163.387757,15.5473568 C163.172216,15.4262108 162.907877,15.315162 162.594732,15.214207 C162.281588,15.1132521 161.89728,15.0627753 161.441797,15.0627753 C160.831775,15.0627753 160.294964,15.169786 159.831348,15.3838106 C159.367731,15.5978351 158.979356,15.9067528 158.666212,16.3105727 C158.353068,16.7143926 158.117196,17.2030074 157.95859,17.7764317 C157.799985,18.349856 157.720683,18.9919201 157.720683,19.7026432 C157.720683,20.4456719 157.806085,21.1059076 157.976891,21.68337 C158.147697,22.2608325 158.389669,22.7454092 158.702813,23.1371145 C159.015958,23.5288199 159.394165,23.8276421 159.837448,24.0335903 C160.28073,24.2395385 160.778907,24.342511 161.331994,24.342511 C161.860679,24.342511 162.295821,24.2799199 162.637434,24.1547357 C162.979046,24.0295515 163.261685,23.8902357 163.48536,23.7367841 C163.709034,23.5833326 163.896105,23.4440168 164.046577,23.3188326 C164.197049,23.1936484 164.345485,23.1310573 164.49189,23.1310573 C164.67083,23.1310573 164.8091,23.1997056 164.906703,23.3370044 L165.516722,24.1244493 C165.248312,24.4555817 164.943306,24.7382514 164.601694,24.972467 C164.260081,25.2066825 163.89204,25.4025322 163.49756,25.560022 C163.103079,25.7175118 162.690304,25.8325988 162.259222,25.9052863 C161.82814,25.9779739 161.388931,26.0143172 160.941582,26.0143172 C160.168887,26.0143172 159.451106,25.8729823 158.788216,25.5903084 C158.125326,25.3076344 157.54988,24.8977633 157.061863,24.3606828 C156.573846,23.8236023 156.191571,23.1633666 155.915028,22.3799559 C155.638485,21.5965453 155.500215,20.7041166 155.500215,19.7026432 C155.500215,18.7900101 155.628318,17.9460391 155.884527,17.1707048 C156.140736,16.3953706 156.514877,15.7270586 157.006961,15.1657489 C157.499045,14.6044392 158.104991,14.1663011 158.824817,13.8513216 C159.544643,13.536342 160.372226,13.3788546 161.307593,13.3788546 C162.177891,13.3788546 162.944473,13.5181704 163.607363,13.7968062 C164.270253,14.0754419 164.857899,14.4691604 165.370317,14.9779736 L164.7969,15.753304 Z M170.03086,15.2081498 C170.559545,14.6508783 171.145157,14.206683 171.787714,13.8755507 C172.43027,13.5444183 173.170418,13.3788546 174.008181,13.3788546 C174.683272,13.3788546 175.279051,13.4899034 175.795536,13.7120044 C176.312021,13.9341054 176.743097,14.2490802 177.088776,14.6569383 C177.434455,15.0647964 177.69676,15.5554303 177.8757,16.1288546 C178.054639,16.7022789 178.144108,17.3362667 178.144108,18.030837 L178.144108,25.8447137 L175.960241,25.8447137 L175.960241,18.030837 C175.960241,17.1020511 175.746737,16.3812434 175.319722,15.8683921 C174.892706,15.3555408 174.24406,15.0991189 173.373762,15.0991189 C172.731206,15.0991189 172.13136,15.2525682 171.574207,15.5594714 C171.017054,15.8663745 170.50261,16.2823028 170.03086,16.8072687 L170.03086,25.8447137 L167.846993,25.8447137 L167.846993,8 L170.03086,8 L170.03086,15.2081498 Z M188.002009,19.8480176 C188.002009,20.8171855 187.88204,21.6853853 187.642098,22.4526432 C187.402156,23.219901 187.048349,23.8680223 186.580666,24.3970264 C186.112983,24.9260305 185.537538,25.3318635 184.854313,25.6145374 C184.171089,25.8972114 183.386206,26.0385463 182.499641,26.0385463 C181.694412,26.0385463 180.872929,25.9254784 180.035166,25.6993392 C180.051433,25.4651236 180.071767,25.2329307 180.096168,25.0027533 C180.120568,24.7725759 180.140902,24.5444211 180.15717,24.3182819 C180.173437,24.1809832 180.224271,24.0699343 180.309674,23.9851322 C180.395077,23.90033 180.527247,23.8579295 180.706186,23.8579295 C180.852592,23.8579295 181.045762,23.8942728 181.285704,23.9669604 C181.525646,24.0396479 181.848952,24.0759912 182.255634,24.0759912 C182.792453,24.0759912 183.272329,23.9952284 183.695278,23.8337004 C184.118226,23.6721725 184.472033,23.4218079 184.75671,23.0825991 C185.041387,22.7433904 185.258958,22.3092905 185.40943,21.7802863 C185.559902,21.2512822 185.635137,20.6233517 185.635137,19.8964758 L185.635137,8.4845815 L188.002009,8.4845815 L188.002009,19.8480176 Z M198.46993,20.3204846 C197.469494,20.3527902 196.61751,20.4315339 195.913951,20.5567181 C195.210393,20.6819022 194.636981,20.8454468 194.193699,21.0473568 C193.750416,21.2492668 193.429143,21.487517 193.229869,21.7621145 C193.030596,22.0367121 192.93096,22.3436106 192.93096,22.6828194 C192.93096,23.0058753 192.983828,23.2845069 193.089565,23.5187225 C193.195302,23.752938 193.339672,23.9447496 193.522678,24.094163 C193.705685,24.2435764 193.921223,24.3526061 194.169298,24.4212555 C194.417374,24.4899049 194.683746,24.5242291 194.968423,24.5242291 C195.350703,24.5242291 195.700443,24.4858668 196.017655,24.409141 C196.334866,24.3324152 196.633772,24.2213664 196.914382,24.0759912 C197.194992,23.930616 197.463398,23.756976 197.719607,23.5550661 C197.975816,23.3531561 198.225921,23.1229822 198.46993,22.8645374 L198.46993,20.3204846 Z M191.454715,15.3050661 C192.13794,14.6508778 192.874021,14.162263 193.662983,13.839207 C194.451944,13.5161511 195.326295,13.3546256 196.286063,13.3546256 C196.977421,13.3546256 197.5915,13.4676934 198.128319,13.6938326 C198.665138,13.9199718 199.116548,14.2349466 199.482561,14.6387665 C199.848574,15.0425865 200.125113,15.5312012 200.312186,16.1046256 C200.499259,16.6780499 200.592795,17.3079995 200.592795,17.9944934 L200.592795,25.8447137 L199.628965,25.8447137 C199.417491,25.8447137 199.254821,25.8103895 199.14095,25.7417401 C199.02708,25.6730907 198.937611,25.537813 198.872542,25.3359031 L198.628535,24.1729075 C198.303189,24.4717342 197.985983,24.7362323 197.676905,24.9664097 C197.367828,25.1965871 197.042488,25.3904177 196.700876,25.5479075 C196.359263,25.7053973 195.995289,25.8265414 195.608942,25.9113436 C195.222595,25.9961458 194.793553,26.0385463 194.321803,26.0385463 C193.841919,26.0385463 193.39051,25.971917 192.967561,25.8386564 C192.544613,25.7053958 192.176572,25.505508 191.863428,25.2389868 C191.550283,24.9724656 191.302211,24.635281 191.119205,24.2274229 C190.936198,23.8195648 190.844696,23.3370072 190.844696,22.7797357 C190.844696,22.2951518 190.978899,21.8287467 191.247309,21.3805066 C191.515718,20.9322665 191.95086,20.5345098 192.552749,20.1872247 C193.154637,19.8399395 193.939519,19.5552508 194.907421,19.3331498 C195.875322,19.1110488 197.062813,18.9838475 198.46993,18.9515419 L198.46993,17.9944934 C198.46993,17.0414784 198.262526,16.3206706 197.847711,15.8320485 C197.432896,15.3434264 196.82695,15.0991189 196.029855,15.0991189 C195.493036,15.0991189 195.04366,15.1657482 194.681714,15.2990088 C194.319768,15.4322694 194.006628,15.5816805 193.742285,15.7472467 C193.477942,15.9128128 193.250204,16.062224 193.059064,16.1954846 C192.867924,16.3287452 192.67882,16.3953744 192.491747,16.3953744 C192.345341,16.3953744 192.219272,16.3570122 192.113535,16.2802863 C192.007798,16.2035605 191.91833,16.1086643 191.845127,15.9955947 L191.454715,15.3050661 Z M206.082963,22.8887665 C206.48151,23.4218088 206.916652,23.7973558 207.388402,24.0154185 C207.860152,24.2334813 208.38883,24.342511 208.974451,24.342511 C210.129426,24.342511 211.015977,23.934659 211.634132,23.1189427 C212.252288,22.3032265 212.561361,21.1402425 212.561361,19.6299559 C212.561361,18.8303925 212.490193,18.1439089 212.347854,17.5704846 C212.205516,16.9970603 212.000145,16.5266171 211.731735,16.159141 C211.463326,15.7916648 211.133919,15.5231286 210.743505,15.3535242 C210.353091,15.1839199 209.909815,15.0991189 209.413664,15.0991189 C208.706039,15.0991189 208.08586,15.2606445 207.553108,15.5837004 C207.020355,15.9067564 206.530312,16.3630661 206.082963,16.9526432 L206.082963,22.8887665 Z M205.973159,15.4746696 C206.493711,14.8366341 207.09559,14.3237905 207.778814,13.9361233 C208.462039,13.5484562 209.242855,13.3546256 210.121286,13.3546256 C210.837045,13.3546256 211.483658,13.4899032 212.061145,13.7604626 C212.638632,14.0310219 213.13071,14.4307976 213.537391,14.9598018 C213.944072,15.4888059 214.257212,16.1450034 214.476819,16.9284141 C214.696427,17.7118248 214.806229,18.6123297 214.806229,19.6299559 C214.806229,20.5345126 214.684227,21.3764645 214.440218,22.155837 C214.196209,22.9352095 213.844436,23.6095787 213.384886,24.1789648 C212.925336,24.7483508 212.364124,25.1965843 211.701234,25.5236784 C211.038344,25.8507725 210.292095,26.0143172 209.462466,26.0143172 C208.706039,26.0143172 208.057392,25.8871158 207.516506,25.6327093 C206.97562,25.3783027 206.497777,25.0249655 206.082963,24.5726872 L206.082963,30 L203.899096,30 L203.899096,13.5726872 L205.204536,13.5726872 C205.513613,13.5726872 205.704751,13.7220984 205.777953,14.0209251 L205.973159,15.4746696 Z M224.273719,20.3204846 C223.273283,20.3527902 222.421299,20.4315339 221.717741,20.5567181 C221.014182,20.6819022 220.440771,20.8454468 219.997488,21.0473568 C219.554206,21.2492668 219.232932,21.487517 219.033659,21.7621145 C218.834385,22.0367121 218.73475,22.3436106 218.73475,22.6828194 C218.73475,23.0058753 218.787617,23.2845069 218.893354,23.5187225 C218.999091,23.752938 219.143461,23.9447496 219.326468,24.094163 C219.509474,24.2435764 219.725012,24.3526061 219.973087,24.4212555 C220.221163,24.4899049 220.487535,24.5242291 220.772212,24.5242291 C221.154492,24.5242291 221.504232,24.4858668 221.821444,24.409141 C222.138655,24.3324152 222.437561,24.2213664 222.718171,24.0759912 C222.998781,23.930616 223.267187,23.756976 223.523396,23.5550661 C223.779605,23.3531561 224.02971,23.1229822 224.273719,22.8645374 L224.273719,20.3204846 Z M217.258504,15.3050661 C217.941729,14.6508778 218.67781,14.162263 219.466772,13.839207 C220.255733,13.5161511 221.130084,13.3546256 222.089852,13.3546256 C222.78121,13.3546256 223.395289,13.4676934 223.932109,13.6938326 C224.468928,13.9199718 224.920337,14.2349466 225.28635,14.6387665 C225.652363,15.0425865 225.928902,15.5312012 226.115975,16.1046256 C226.303049,16.6780499 226.396584,17.3079995 226.396584,17.9944934 L226.396584,25.8447137 L225.432754,25.8447137 C225.22128,25.8447137 225.05861,25.8103895 224.944739,25.7417401 C224.830869,25.6730907 224.7414,25.537813 224.676331,25.3359031 L224.432324,24.1729075 C224.106979,24.4717342 223.789772,24.7362323 223.480695,24.9664097 C223.171617,25.1965871 222.846277,25.3904177 222.504665,25.5479075 C222.163053,25.7053973 221.799078,25.8265414 221.412731,25.9113436 C221.026384,25.9961458 220.597342,26.0385463 220.125592,26.0385463 C219.645708,26.0385463 219.194299,25.971917 218.771351,25.8386564 C218.348402,25.7053958 217.980361,25.505508 217.667217,25.2389868 C217.354073,24.9724656 217.106001,24.635281 216.922994,24.2274229 C216.739988,23.8195648 216.648486,23.3370072 216.648486,22.7797357 C216.648486,22.2951518 216.782688,21.8287467 217.051098,21.3805066 C217.319508,20.9322665 217.75465,20.5345098 218.356538,20.1872247 C218.958426,19.8399395 219.743309,19.5552508 220.71121,19.3331498 C221.679111,19.1110488 222.866602,18.9838475 224.273719,18.9515419 L224.273719,17.9944934 C224.273719,17.0414784 224.066315,16.3206706 223.6515,15.8320485 C223.236685,15.3434264 222.630739,15.0991189 221.833644,15.0991189 C221.296825,15.0991189 220.847449,15.1657482 220.485503,15.2990088 C220.123557,15.4322694 219.810417,15.5816805 219.546074,15.7472467 C219.281732,15.9128128 219.053994,16.062224 218.862853,16.1954846 C218.671713,16.3287452 218.482609,16.3953744 218.295536,16.3953744 C218.149131,16.3953744 218.023062,16.3570122 217.917325,16.2802863 C217.811588,16.2035605 217.722119,16.1086643 217.648916,15.9955947 L217.258504,15.3050661 Z M231.752548,15.3535242 C232.020957,15.0546975 232.30563,14.7841422 232.606574,14.5418502 C232.907518,14.2995583 233.226758,14.0915941 233.564303,13.9179515 C233.901849,13.744309 234.259723,13.6110504 234.637936,13.5181718 C235.016149,13.4252932 235.424858,13.3788546 235.864073,13.3788546 C236.539164,13.3788546 237.134943,13.4899034 237.651428,13.7120044 C238.167913,13.9341054 238.598989,14.2490802 238.944668,14.6569383 C239.290347,15.0647964 239.552652,15.5554303 239.731592,16.1288546 C239.910532,16.7022789 240,17.3362667 240,18.030837 L240,25.8447137 L237.816133,25.8447137 L237.816133,18.030837 C237.816133,17.1020511 237.602629,16.3812434 237.175614,15.8683921 C236.748598,15.3555408 236.099952,15.0991189 235.229654,15.0991189 C234.587098,15.0991189 233.987252,15.2525682 233.430099,15.5594714 C232.872946,15.8663745 232.358502,16.2823028 231.886752,16.8072687 L231.886752,25.8447137 L229.702885,25.8447137 L229.702885,13.5726872 L231.008325,13.5726872 C231.317402,13.5726872 231.50854,13.7220984 231.581743,14.0209251 L231.752548,15.3535242 Z" id="BlockTechJapan-Copy-2"></path>
            <path d="M78.6186094,34 C79.1281373,34.4871267 79.529255,34.9969104 79.8219624,35.5180227 L79.2148654,35.9711637 C78.9004759,35.4047374 78.5210403,34.8949537 78.0765585,34.4418126 L78.6186094,34 Z M77.5887127,34.6683831 C78.0657175,35.1328527 78.4668352,35.6426365 78.7703837,36.2090628 L78.1849687,36.6395469 C77.8705792,36.084449 77.4803025,35.5746653 77.0249798,35.1215242 L77.5887127,34.6683831 Z M70,35.9371782 L77.2960052,35.9371782 L77.8597382,36.4016478 C77.4152564,38.3161689 76.7647953,39.8908342 75.8975139,41.1369722 C74.9109812,42.5417096 73.588377,43.6179197 71.9188602,44.3882595 L71.192512,43.4819773 C72.6018444,42.8249228 73.7618333,41.9412976 74.6507968,40.8424305 C75.4747142,39.8115345 76.1034932,38.5427394 76.547975,37.0247168 L70,37.0247168 L70,35.9371782 Z M81.3830691,36.3223481 L89.1669201,36.3223481 L89.1669201,43.6065911 L81.3830691,43.6065911 L81.3830691,36.3223481 Z M82.5105349,37.4098867 L82.5105349,42.5190525 L88.0394542,42.5190525 L88.0394542,37.4098867 L82.5105349,37.4098867 Z M95.3896645,37.3985582 C95.682372,37.8290422 95.9425564,38.2368692 96.1810588,38.6446962 C96.4195612,39.0411946 96.6472226,39.4376931 96.853202,39.8455201 L95.9750795,40.4119464 C95.5414388,39.5623069 95.0535929,38.7353244 94.522383,37.9196704 L95.3896645,37.3985582 Z M98.5335598,37.6930999 L99.6176616,37.8856849 C99.3141131,39.4830072 98.8154262,40.7744593 98.1216011,41.7713697 C97.3193657,42.8928939 96.1918998,43.7198764 94.7608854,44.2523172 L94.1429474,43.3347065 C95.4655516,42.8249228 96.4846073,42.099897 97.1892735,41.1596292 C97.8180526,40.2986612 98.2625343,39.1431514 98.5335598,37.6930999 Z M93.4816453,38.0216272 C94.0453783,38.8372812 94.5332241,39.6642636 94.9451828,40.4799176 L94.0779013,41.046344 C93.6008965,40.1400618 93.1022097,39.3244078 92.5926818,38.576725 L93.4816453,38.0216272 Z M105.948816,34.7250257 L106.989554,35.0762101 C106.859462,35.46138 106.707687,35.8352214 106.555913,36.1977343 L110.03588,36.1977343 L110.697182,36.5602472 C110.371952,38.4634398 109.699808,40.0607621 108.680753,41.3748713 C107.640015,42.6663234 106.274047,43.6632338 104.572007,44.3656025 L103.975751,43.3686921 C105.374242,42.8249228 106.52339,42.07724 107.412354,41.1256437 C108.409727,40.0834192 109.071029,38.8032956 109.417942,37.2966014 L105.981339,37.2966014 C105.840406,37.5345005 105.688632,37.7610711 105.536857,37.9876416 C104.962284,38.8032956 104.235935,39.5623069 103.346972,40.2760041 L102.566419,39.5056643 C103.379495,38.8372812 104.07332,38.1122554 104.647894,37.3192585 C105.222468,36.5036045 105.656109,35.6313079 105.948816,34.7250257 Z M120.584191,34.9289392 L121.169606,35.9371782 C120.324006,36.2543769 119.435043,36.5149331 118.491874,36.7188465 L118.491874,38.6446962 L122.3838,38.6446962 L122.3838,39.7209063 L118.491874,39.7209063 C118.459351,40.7631308 118.166644,41.69207 117.624593,42.4963955 C117.104224,43.2440783 116.367035,43.8671473 115.402184,44.376931 L114.654154,43.4593203 C115.46723,43.0175077 116.096009,42.507724 116.551332,41.9299691 C117.050019,41.2729145 117.321044,40.5365602 117.364408,39.7209063 L113.353232,39.7209063 L113.353232,38.6446962 L117.364408,38.6446962 L117.364408,36.9454171 C116.377876,37.115345 115.347979,37.2399588 114.274718,37.3192585 L114.003693,36.2543769 C115.207046,36.1750772 116.377876,36.0164779 117.505342,35.7899073 C118.589443,35.5633368 119.608499,35.2801236 120.584191,34.9289392 Z M125.733674,38.2028836 L131.566142,38.2028836 L131.566142,39.2224511 L129.181118,39.2224511 L129.181118,42.700309 L132.108193,42.700309 L132.108193,43.7198764 L125.169941,43.7198764 L125.169941,42.700309 L128.107857,42.700309 L128.107857,39.2224511 L125.733674,39.2224511 L125.733674,38.2028836 Z M135.349657,39.0525232 L143.621354,39.0525232 L143.621354,40.1400618 L135.349657,40.1400618 L135.349657,39.0525232 Z M146.526747,35.3707518 C147.556644,35.9145211 148.68411,36.6622039 149.919986,37.6024717 L149.21532,38.4974253 C148.001126,37.5911432 146.917024,36.8887745 145.973855,36.3676622 L146.526747,35.3707518 Z M153.811911,37.0133883 L154.852649,37.4438723 C154.104619,39.2224511 153.118086,40.6838311 151.88221,41.8393409 C150.548765,43.0514933 148.944294,43.9011329 147.057957,44.376931 L146.537588,43.3347065 C148.196264,42.9268795 149.670642,42.1565396 150.960724,41.0236869 C152.1966,39.9134912 153.139768,38.576725 153.811911,37.0133883 Z M164.631247,35.8352214 L164.696294,36.8321318 C163.536305,36.9567456 162.116131,37.0360453 160.424932,37.0587024 C160.121384,37.5684861 159.817835,38.0102987 159.492605,38.3954686 C159.958769,38.0556128 160.424932,37.8970134 160.880255,37.8970134 C161.476511,37.8970134 161.931834,38.1122554 162.235382,38.5653965 C162.289587,38.6446962 162.343793,38.7353244 162.387157,38.8486097 C163.156869,38.5653965 164.045832,38.2935118 165.054047,38.0442842 L165.346755,39.0638517 C164.371063,39.2677652 163.460417,39.5283213 162.614818,39.8455201 C162.625659,40.0041195 162.6365,40.1853759 162.6365,40.3666323 L162.6365,42.3491246 L161.617444,42.3491246 L161.617444,40.5478888 C161.617444,40.445932 161.606603,40.3553038 161.606603,40.2646756 C160.197271,40.8990731 159.503446,41.5334706 159.503446,42.1905252 C159.503446,42.5530381 159.741948,42.8249228 160.229794,42.9948507 C160.620071,43.1194645 161.162122,43.1874356 161.877629,43.1874356 C162.929208,43.1874356 163.904899,43.0968074 164.793863,42.915551 L164.880591,43.9577755 C163.883217,44.1163749 162.885843,44.2070031 161.877629,44.2070031 C160.804368,44.2070031 159.980451,44.0597322 159.416718,43.7765191 C158.755416,43.4366632 158.430185,42.915551 158.430185,42.1905252 C158.430185,41.2389289 159.145692,40.3892894 160.587548,39.6302781 C160.82605,39.4943357 161.097075,39.3697219 161.389783,39.2451081 C161.238009,38.9505664 160.999506,38.8032956 160.695958,38.8032956 C159.817835,38.8032956 158.787939,39.5283213 157.595427,40.9897013 L156.847396,40.2646756 C157.725519,39.2677652 158.419344,38.3954686 158.928872,37.6251287 L159.275784,37.0587024 C158.70121,37.0587024 157.974862,37.0473738 157.085899,37.0360453 L157.09674,36.0051493 C158.072431,36.0164779 158.983077,36.0278064 159.828676,36.0278064 C160.045497,35.5633368 160.240635,35.0875386 160.435773,34.6004119 L161.400624,34.9855819 C161.24885,35.3480947 161.107917,35.6992791 160.956142,36.0278064 C162.430521,36.0051493 163.655556,35.9371782 164.631247,35.8352214 Z M168.468968,42.0092688 C168.924291,42.3377961 169.357931,42.722966 169.76989,43.1761071 C170.116803,43.5499485 170.442033,43.946447 170.745582,44.376931 L170.040915,45 C169.759049,44.569516 169.433818,44.1730175 169.086906,43.7878476 C168.696629,43.3573635 168.284671,42.9608651 167.85103,42.5983522 L168.468968,42.0092688 Z M182.490018,34.1246138 C182.999546,34.6117405 183.400663,35.1215242 183.68253,35.6426365 L183.086274,36.0957775 C182.771884,35.5293512 182.392449,35.0195675 181.937126,34.5664264 L182.490018,34.1246138 Z M181.470962,34.838311 C181.947967,35.2914521 182.349085,35.8012358 182.652633,36.3676622 L182.067218,36.8094748 C181.76367,36.2543769 181.373393,35.7445932 180.91807,35.2801236 L181.470962,34.838311 Z M181.492644,36.7641607 L182.110582,37.6591143 C180.506112,38.554068 178.522205,39.3470649 176.169704,40.038105 L176.169704,41.6127703 C176.169704,42.0885685 176.299797,42.4057673 176.581663,42.5756952 C176.928576,42.7796087 177.633242,42.8928939 178.717344,42.8928939 C179.920697,42.8928939 181.113209,42.8135942 182.29488,42.6549949 L182.284039,43.7878476 C180.376019,43.9011329 179.21603,43.969104 178.814913,43.969104 C177.318852,43.969104 176.321479,43.8218332 175.833633,43.5499485 C175.313264,43.2440783 175.05308,42.6323378 175.05308,41.7033986 C175.05308,39.1544799 175.063921,36.9680742 175.096444,35.1441813 L176.202227,35.1441813 L176.180545,38.9052523 C178.131929,38.361483 179.909856,37.6477858 181.492644,36.7641607 Z M192.723939,34.192585 C193.233467,34.6797116 193.634585,35.1894954 193.927292,35.7106076 L193.331036,36.1637487 C193.005806,35.5973223 192.62637,35.0875386 192.181888,34.6343975 L192.723939,34.192585 Z M191.650678,34.9515963 C192.127683,35.4160659 192.528801,35.9258496 192.832349,36.492276 L192.246934,36.9340886 C191.932545,36.3676622 191.542268,35.8578785 191.086945,35.4047374 L191.650678,34.9515963 Z M186.1326,35.1555098 C187.455204,35.5293512 188.593511,36.0278064 189.547521,36.6508754 L188.929583,37.5684861 C188.083983,37.0247168 186.999882,36.5602472 185.655595,36.1977343 L186.1326,35.1555098 Z M192.583006,37.2852729 L193.634585,37.7044284 C192.962441,39.3017508 191.98675,40.6725026 190.70751,41.8280124 C189.319859,43.0741504 187.715389,43.9124614 185.894098,44.3656025 L185.373729,43.2893924 C187.054087,42.8815654 188.550147,42.1112255 189.851069,41.0010299 C191.086945,39.9361483 191.997591,38.7013388 192.583006,37.2852729 Z M185.17859,37.6817714 C186.306056,37.953656 187.444363,38.4294542 188.58267,39.0978373 L187.997255,40.0834192 C187.054087,39.5169928 185.959144,39.0525232 184.712427,38.7126674 L185.17859,37.6817714 Z M199.467052,34.6570546 L200.594518,34.6570546 L200.594518,36.0164779 L203.044588,36.0164779 L203.716732,36.5715757 C202.936178,37.9083419 201.89544,39.1091658 200.594518,40.1740474 L200.594518,44.3202884 L199.467052,44.3202884 L199.467052,41.0123584 C198.491361,41.669413 197.396418,42.2584964 196.182224,42.7909372 L195.672696,41.8166838 C197.016982,41.2276004 198.198653,40.5592173 199.239391,39.8115345 C200.388539,38.984552 201.331708,38.0782698 202.079738,37.092688 L196.312316,37.092688 L196.312316,36.0164779 L199.467052,36.0164779 L199.467052,34.6570546 Z M201.57021,39.8795057 C202.058056,40.1174047 202.643471,40.445932 203.315614,40.8650875 C203.846824,41.2049434 204.410557,41.5674562 205.006813,41.9752832 L204.323829,42.8815654 C203.727573,42.4737384 203.16384,42.099897 202.643471,41.7713697 C201.971328,41.3408857 201.407595,41.0123584 200.952272,40.7857878 L201.57021,39.8795057 Z M211.15367,41.0123584 C210.004522,42.3038105 208.540985,43.4140062 206.741376,44.3316169 L206.058391,43.3913491 C209.050512,41.9186406 211.164511,39.7548919 212.422069,36.8774459 L207.207539,36.8774459 L207.207539,35.7899073 L213.256827,35.7899073 L213.928971,36.2543769 C213.343556,37.7497425 212.64973,39.0411946 211.858336,40.1287333 C212.519638,40.6045314 213.126735,41.069001 213.679627,41.5221421 C214.590273,42.2584964 215.316621,42.9268795 215.847831,43.53862 L214.969708,44.2976313 C214.427657,43.6858908 213.744673,43.0401648 212.920756,42.3604531 C212.367864,41.907312 211.782449,41.454171 211.15367,41.0123584 Z M221.918801,35.7445932 C223.154677,35.7445932 224.184574,36.1297631 225.030173,36.900103 C225.854091,37.6704428 226.266049,38.6333677 226.266049,39.7888774 C226.266049,41.0803296 225.875773,42.099897 225.116901,42.8249228 C224.444758,43.4366632 223.382338,43.9011329 221.951324,44.2183316 L221.604411,43.1874356 C222.883652,42.938208 223.805138,42.5417096 224.368871,42.0205973 C224.910922,41.4994851 225.192788,40.7518023 225.192788,39.7888774 C225.192788,38.8825953 224.845876,38.146241 224.162892,37.5798146 C223.620841,37.1266735 222.992062,36.8661174 222.276555,36.7981462 L222.038052,38.9052523 C221.853755,40.1740474 221.59357,41.1596292 221.246658,41.884655 C220.769653,42.915551 220.140874,43.4366632 219.360321,43.4366632 C218.677337,43.4366632 218.124445,43.130793 217.701645,42.5303811 C217.311368,41.9526262 217.11623,41.2502575 217.11623,40.4346035 C217.11623,39.1884655 217.528189,38.1235839 218.373788,37.2286303 C219.284434,36.2317199 220.466105,35.7445932 221.918801,35.7445932 Z M219.360321,42.4057673 C219.967418,42.4057673 220.466105,41.4654995 220.84554,39.607621 C221.018996,38.7353244 221.149089,37.8063852 221.235817,36.8208033 C220.498628,36.9340886 219.859008,37.2626159 219.306116,37.8063852 C218.558085,38.5087539 218.189491,39.392379 218.189491,40.4346035 C218.189491,41.0236869 218.308742,41.5108136 218.547244,41.884655 C218.764065,42.2245108 219.03509,42.4057673 219.360321,42.4057673 Z M232.000948,34.3511843 L233.063368,34.3511843 L233.063368,36.3110196 L236.92277,36.3110196 L236.92277,41.7826982 L235.892873,41.7826982 L235.892873,41.1369722 L233.063368,41.1369722 L233.063368,44.9320288 L232.000948,44.9320288 L232.000948,41.1369722 L229.182283,41.1369722 L229.182283,41.7826982 L228.152386,41.7826982 L228.152386,36.3110196 L232.000948,36.3110196 L232.000948,34.3511843 Z M229.182283,40.0834192 L232.000948,40.0834192 L232.000948,37.3645726 L229.182283,37.3645726 L229.182283,40.0834192 Z M233.063368,40.0834192 L235.892873,40.0834192 L235.892873,37.3645726 L233.063368,37.3645726 L233.063368,40.0834192 Z M242.191505,36.5715757 C242.35412,36.5715757 242.516735,36.6055613 242.679351,36.6961895 C242.907012,36.8094748 243.145515,37.0020597 243.405699,37.2739444 C245.292036,39.3244078 247.015758,41.046344 248.566024,42.4284243 L247.78547,43.346035 C246.126794,41.8506694 244.424755,40.1287333 242.690192,38.1802266 C242.5601,38.0442842 242.451689,37.9423275 242.386643,37.8856849 C242.310756,37.8290422 242.256551,37.8063852 242.213187,37.8063852 C242.126459,37.8063852 242.02889,37.8743563 241.920479,38.0102987 C240.879742,39.3017508 239.914891,40.4119464 239.04761,41.3182286 L238.180328,40.4572606 C238.960881,39.7095778 239.936573,38.6220391 241.096562,37.2173018 C241.443475,36.7868177 241.801228,36.5715757 242.191505,36.5715757 Z M251.503939,41.9866117 C251.915898,41.9866117 252.262811,42.1338826 252.555518,42.4284243 C252.848226,42.7116375 253,43.0628218 253,43.4933059 C253,43.9124614 252.848226,44.2749743 252.555518,44.569516 C252.262811,44.8527291 251.915898,45 251.503939,45 C251.091981,45 250.734227,44.8527291 250.452361,44.5808445 C250.148812,44.2863028 250.007879,43.9237899 250.007879,43.4933059 C250.007879,43.0628218 250.148812,42.700309 250.452361,42.4170958 C250.734227,42.1225541 251.091981,41.9866117 251.503939,41.9866117 Z M251.503939,42.7342945 C251.29796,42.7342945 251.124504,42.8022657 250.97273,42.9608651 C250.820955,43.0968074 250.755909,43.2780639 250.755909,43.4933059 C250.755909,43.6972194 250.820955,43.8784758 250.97273,44.0370752 C251.124504,44.1730175 251.29796,44.2523172 251.503939,44.2523172 C251.699078,44.2523172 251.883375,44.1730175 252.035149,44.0370752 C252.176083,43.8784758 252.25197,43.6972194 252.25197,43.4933059 C252.25197,43.2780639 252.176083,43.0968074 252.035149,42.9608651 C251.883375,42.8022657 251.699078,42.7342945 251.503939,42.7342945 Z" id="ブロックチェーンを、ビジネスの中へ。-copy-2"></path>
            <path d="M53.6673274,15.4982503 L46.185911,2.58532652 C45.3329729,1.11122269 43.4021282,0 41.6938242,0 L26.7625518,0 C25.7162055,0 24.8648859,0.432231757 24.4278967,1.18621812 C23.9909076,1.94020449 24.0402712,2.89095308 24.5630397,3.79412391 L26.6905295,7.47212586 L21.1318655,7.47212586 C19.4243708,7.47212586 17.493526,8.58334855 16.6397787,10.056646 L14.3083605,14.0797882 L12.5490745,11.0388443 C11.0527913,8.45351776 11.0527913,8.45351776 10.3358053,8.45351776 C9.61881939,8.45351776 9.61881939,8.45351776 8.12172688,11.0380378 L0.640310515,23.9509616 C-0.213436838,25.424259 -0.213436838,27.6467044 0.640310515,29.1200018 L8.12253611,42.0329256 C9.61962866,44.6174457 9.61962866,44.6174457 10.3325684,44.6174457 C11.0446989,44.6174457 11.0446989,44.6174457 12.5434099,42.0345384 L14.3091698,38.9911752 L16.6405879,43.0143174 C17.4943353,44.4876149 19.42518,45.5988376 21.1326747,45.5988376 L26.6249812,45.5988376 L24.5330978,49.2058759 C24.0095201,50.1090471 23.9593472,51.0597955 24.3955272,51.8129753 C24.8317071,52.5677682 25.6830267,53 26.729373,53 L41.6679286,53 C43.3754233,53 45.3070773,51.8887771 46.1600156,50.4154799 L53.626056,37.5299738 C54.1488247,36.626803 54.1989974,35.675248 53.7620083,34.9220681 C53.3258283,34.1672753 52.4745088,33.7350435 51.4281624,33.7342371 L47.1019697,33.7310115 L49.7740774,29.1191954 C50.6278251,27.645898 50.6278251,25.424259 49.7740774,23.9501552 L47.0882128,19.314147 L51.6927838,19.3173726 C51.7033038,19.3173726 51.7130147,19.3173726 51.7235347,19.3173726 C54.4158738,19.3173726 54.4183015,19.3157599 54.7816497,18.7416013 L54.8293947,18.6601546 C55.1490442,18.0569655 55.1490442,18.0569655 53.6673274,15.4982503 Z M10.4410064,40.8233218 C10.4045907,40.8862212 10.3689842,40.9483141 10.3325684,41.0096008 C10.2969618,40.9483141 10.2613553,40.8862212 10.2241303,40.8233218 L2.74190471,27.9095916 C2.32514652,27.1902806 2.32514652,25.8798764 2.74190471,25.159759 L10.2241303,12.2468353 C10.2613553,12.1823231 10.2985803,12.1186172 10.3349961,12.0557178 C10.3714118,12.1186172 10.4086368,12.1823231 10.4458618,12.2468353 L12.9067583,16.4989958 L8.58946716,23.9509616 C7.73571979,25.424259 7.73571979,27.6467044 8.58946716,29.1191954 L12.9075675,36.5711612 L10.4410064,40.8233218 Z M10.6918706,27.910398 C10.2751124,27.191087 10.2751124,25.8806829 10.6918706,25.1613718 L14.3075513,18.9206226 L17.926469,25.1742742 C18.3432272,25.8943917 18.342418,27.2047958 17.9248505,27.9241069 L14.309979,34.1551793 L10.6918706,27.910398 Z M18.7421821,41.8047136 L15.7107721,36.5735804 L20.0264447,29.1345171 C20.8810013,27.6612196 20.8818106,25.4395807 20.0288725,23.9654769 L15.7099629,16.4998022 L18.7429914,11.2654434 C18.7769794,11.206576 18.823106,11.1493214 18.8651865,11.0920668 L27.8080888,26.5483842 L18.8611403,41.971639 C18.8198691,41.9168036 18.7753609,41.8619682 18.7421821,41.8047136 Z M51.4265442,36.1534447 C51.4969479,36.1534447 51.5535947,36.1590895 51.598912,36.1663472 C51.5827274,36.2082801 51.5584501,36.2598898 51.5236529,36.32037 L44.0576119,49.2058759 C43.6408537,49.9259937 42.5022542,50.5807924 41.6679286,50.5807924 L26.729373,50.5807924 C26.6605877,50.5807924 26.6039409,50.5759539 26.560242,50.5686966 C26.5764268,50.5267636 26.5998947,50.4759602 26.634692,50.4170926 L29.4298042,45.5988376 L37.2324886,45.5988376 C38.9399832,45.5988376 40.8716372,44.4876149 41.7245753,43.0143174 L45.701986,36.1494127 L51.4265442,36.1534447 Z M30.8330249,43.17963 L34.1177269,37.5170714 C34.534485,36.7977603 35.6738938,36.1437679 36.5082195,36.1437679 L42.8987814,36.1486063 L39.6213626,41.8055201 C39.2037952,42.5256375 38.0651957,43.1804364 37.2316793,43.1804364 L30.8330249,43.1804364 L30.8330249,43.17963 Z M47.6716742,27.910398 L44.2995744,33.7302051 L36.506601,33.7245603 C34.7999155,33.7245603 32.8690708,34.8341702 32.0145142,36.3058548 L28.0265834,43.17963 L21.1310562,43.17963 C21.0800741,43.17963 21.0250459,43.1699532 20.9724453,43.1651147 L29.9088738,27.7596008 L47.7347947,27.7708904 C47.7145638,27.8176617 47.6967606,27.8676587 47.6716742,27.910398 Z M47.6716742,25.1605654 C47.7056624,25.2194328 47.7323669,25.2871706 47.7606906,25.3524892 L29.9104923,25.3411996 L20.9797285,9.9050423 C21.0299013,9.90101027 21.0833111,9.89133347 21.1318655,9.89133347 L28.0905133,9.89133347 L32.0428376,16.7215629 C32.8957757,18.1956667 34.8258112,19.3076958 36.5333059,19.3085022 L44.2841989,19.3133407 L47.6716742,25.1605654 Z M30.8929087,9.89133347 L37.2316793,9.89133347 C38.0651957,9.89133347 39.2046045,10.5461323 39.6213626,11.2662498 L42.8817874,16.894133 L36.5341151,16.890101 C35.7005987,16.890101 34.56119,16.2336894 34.145241,15.5135719 L30.8929087,9.89133347 Z M45.685801,16.8957458 L41.7237661,10.0574524 C40.870828,8.58334855 38.9399832,7.47212586 37.2316793,7.47212586 L29.4937341,7.47212586 L26.6662523,2.58613292 C26.6314551,2.52565273 26.6071779,2.47404297 26.5909931,2.43211004 C26.6355013,2.42485241 26.692148,2.420014 26.7625518,2.420014 L41.6938242,2.420014 C42.5273406,2.420014 43.6667494,3.07481285 44.0835076,3.79493032 L51.5649238,16.707854 C51.6021488,16.7723663 51.6393738,16.8368785 51.6757897,16.8997779 L45.685801,16.8957458 Z" id="Shape-Copy-3"></path>
        </g>
    </g>
</svg>