<?xml version="1.0" encoding="UTF-8"?>
<svg width="561px" height="117px" viewBox="0 0 561 117" version="1.1" xmlns="http://www.w3.org/2000/svg" xmlns:xlink="http://www.w3.org/1999/xlink">
    <!-- Generator: Sketch 51.1 (57501) - http://www.bohemiancoding.com/sketch -->
    <title>blocktechjapan_blue</title>
    <desc>Created with Sketch.</desc>
    <defs></defs>
    <g id="blocktechjapan_blue" stroke="none" stroke-width="1" fill="none" fill-rule="evenodd">
        <g id="Group-3">
            <path d="M168.581,52.613 C170.075007,52.613 171.361995,52.4420017 172.442,52.1 C173.522005,51.7579983 174.408497,51.2765031 175.1015,50.6555 C175.794503,50.0344969 176.302998,49.2965043 176.627,48.4415 C176.951002,47.5864957 177.113,46.6460051 177.113,45.62 C177.113,43.62199 176.402007,42.0425058 174.98,40.8815 C173.557993,39.7204942 171.425014,39.14 168.581,39.14 L160.211,39.14 L160.211,52.613 L168.581,52.613 Z M160.211,22.211 L160.211,35.414 L167.123,35.414 C168.599007,35.414 169.881495,35.2520016 170.9705,34.928 C172.059505,34.6039984 172.959496,34.1540029 173.6705,33.578 C174.381504,33.0019971 174.907998,32.3045041 175.25,31.4855 C175.592002,30.6664959 175.763,29.7710049 175.763,28.799 C175.763,26.5129886 175.079007,24.8435053 173.711,23.7905 C172.342993,22.7374947 170.219014,22.211 167.339,22.211 L160.211,22.211 Z M167.339,18.08 C169.715012,18.08 171.762491,18.3139977 173.4815,18.782 C175.200509,19.2500023 176.613494,19.9159957 177.7205,20.78 C178.827506,21.6440043 179.641997,22.7014937 180.164,23.9525 C180.686003,25.2035063 180.947,26.6119922 180.947,28.178 C180.947,29.1320048 180.798501,30.0454956 180.5015,30.9185 C180.204499,31.7915044 179.759003,32.6059962 179.165,33.362 C178.570997,34.1180038 177.819505,34.797497 176.9105,35.4005 C176.001495,36.003503 174.935006,36.4939981 173.711,36.872 C176.555014,37.4120027 178.692493,38.4244926 180.1235,39.9095 C181.554507,41.3945074 182.27,43.3429879 182.27,45.755 C182.27,47.3930082 181.968503,48.8869932 181.3655,50.237 C180.762497,51.5870068 179.880506,52.7479951 178.7195,53.72 C177.558494,54.6920049 176.132008,55.4434973 174.44,55.9745 C172.747992,56.5055027 170.822011,56.771 168.662,56.771 L155,56.771 L155,18.08 L167.339,18.08 Z M193.745,17 L193.745,56.771 L188.939,56.771 L188.939,17 L193.745,17 Z M213.05,28.988 C215.04801,28.988 216.847992,29.3209967 218.45,29.987 C220.052008,30.6530033 221.419994,31.5979939 222.554,32.822 C223.688006,34.0460061 224.556497,35.5264913 225.1595,37.2635 C225.762503,39.0005087 226.064,40.9399893 226.064,43.082 C226.064,45.2420108 225.762503,47.1859914 225.1595,48.914 C224.556497,50.6420086 223.688006,52.1179939 222.554,53.342 C221.419994,54.5660061 220.052008,55.5064967 218.45,56.1635 C216.847992,56.8205033 215.04801,57.149 213.05,57.149 C211.03399,57.149 209.220508,56.8205033 207.6095,56.1635 C205.998492,55.5064967 204.626006,54.5660061 203.492,53.342 C202.357994,52.1179939 201.489503,50.6420086 200.8865,48.914 C200.283497,47.1859914 199.982,45.2420108 199.982,43.082 C199.982,40.9399893 200.283497,39.0005087 200.8865,37.2635 C201.489503,35.5264913 202.357994,34.0460061 203.492,32.822 C204.626006,31.5979939 205.998492,30.6530033 207.6095,29.987 C209.220508,29.3209967 211.03399,28.988 213.05,28.988 Z M213.05,53.396 C215.750014,53.396 217.765993,52.491509 219.098,50.6825 C220.430007,48.873491 221.096,46.3490162 221.096,43.109 C221.096,39.8509837 220.430007,37.3130091 219.098,35.495 C217.765993,33.6769909 215.750014,32.768 213.05,32.768 C211.681993,32.768 210.489505,33.0019977 209.4725,33.47 C208.455495,33.9380023 207.609503,34.6129956 206.9345,35.495 C206.259497,36.3770044 205.755502,37.4614936 205.4225,38.7485 C205.089498,40.0355064 204.923,41.4889919 204.923,43.109 C204.923,46.3490162 205.593493,48.873491 206.9345,50.6825 C208.275507,52.491509 210.313986,53.396 213.05,53.396 Z M251.174,34.28 C251.029999,34.478001 250.886001,34.6309995 250.742,34.739 C250.597999,34.8470005 250.400001,34.901 250.148,34.901 C249.877999,34.901 249.581002,34.7885011 249.257,34.5635 C248.932998,34.3384989 248.532502,34.0910013 248.0555,33.821 C247.578498,33.5509986 246.993503,33.3035011 246.3005,33.0785 C245.607497,32.8534989 244.757005,32.741 243.749,32.741 C242.398993,32.741 241.211005,32.9794976 240.185,33.4565 C239.158995,33.9335024 238.299503,34.6219955 237.6065,35.522 C236.913497,36.4220045 236.391502,37.5109936 236.0405,38.789 C235.689498,40.0670064 235.514,41.4979921 235.514,43.082 C235.514,44.7380083 235.702998,46.2094936 236.081,47.4965 C236.459002,48.7835064 236.994497,49.8634956 237.6875,50.7365 C238.380503,51.6095044 239.217495,52.2754977 240.1985,52.7345 C241.179505,53.1935023 242.281994,53.423 243.506,53.423 C244.676006,53.423 245.638996,53.2835014 246.395,53.0045 C247.151004,52.7254986 247.776498,52.4150017 248.2715,52.073 C248.766502,51.7309983 249.180498,51.4205014 249.5135,51.1415 C249.846502,50.8624986 250.174998,50.723 250.499,50.723 C250.895002,50.723 251.200999,50.8759985 251.417,51.182 L252.767,52.937 C252.172997,53.6750037 251.498004,54.3049974 250.742,54.827 C249.985996,55.3490026 249.171504,55.7854982 248.2985,56.1365 C247.425496,56.4875018 246.512005,56.7439992 245.558,56.906 C244.603995,57.0680008 243.632005,57.149 242.642,57.149 C240.931991,57.149 239.343507,56.8340031 237.8765,56.204 C236.409493,55.5739968 235.136005,54.660506 234.056,53.4635 C232.975995,52.266494 232.130003,50.7950087 231.518,49.049 C230.905997,47.3029913 230.6,45.3140112 230.6,43.082 C230.6,41.0479898 230.883497,39.1670086 231.4505,37.439 C232.017503,35.7109914 232.845495,34.2215063 233.9345,32.9705 C235.023505,31.7194937 236.364492,30.7430035 237.9575,30.041 C239.550508,29.3389965 241.38199,28.988 243.452,28.988 C245.37801,28.988 247.074493,29.2984969 248.5415,29.9195 C250.008507,30.5405031 251.308994,31.4179943 252.443,32.552 L251.174,34.28 Z M262.757,17 L262.757,40.409 L263.999,40.409 C264.359002,40.409 264.660499,40.3595005 264.9035,40.2605 C265.146501,40.1614995 265.402999,39.9590015 265.673,39.653 L274.313,30.392 C274.565001,30.0859985 274.830499,29.8475009 275.1095,29.6765 C275.388501,29.5054991 275.761998,29.42 276.23,29.42 L280.577,29.42 L270.506,40.139 C270.019998,40.7510031 269.498003,41.2279983 268.94,41.57 C269.264002,41.7860011 269.556499,42.0334986 269.8175,42.3125 C270.078501,42.5915014 270.325999,42.9109982 270.56,43.271 L281.252,56.771 L276.959,56.771 C276.544998,56.771 276.189501,56.7035007 275.8925,56.5685 C275.595499,56.4334993 275.339001,56.1860018 275.123,55.826 L266.132,44.621 C265.861999,44.2429981 265.596501,43.9955006 265.3355,43.8785 C265.074499,43.7614994 264.674003,43.703 264.134,43.703 L262.757,43.703 L262.757,56.771 L257.924,56.771 L257.924,17 L262.757,17 Z M312.653,22.481 L300.125,22.481 L300.125,56.771 L294.914,56.771 L294.914,22.481 L282.359,22.481 L282.359,18.08 L312.653,18.08 L312.653,22.481 Z M335.549,40.112 C335.549,38.9959944 335.391502,37.9745046 335.0765,37.0475 C334.761498,36.1204954 334.302503,35.3195034 333.6995,34.6445 C333.096497,33.9694966 332.363004,33.4475018 331.499,33.0785 C330.634996,32.7094982 329.654005,32.525 328.556,32.525 C326.251988,32.525 324.429507,33.1954933 323.0885,34.5365 C321.747493,35.8775067 320.915002,37.7359881 320.591,40.112 L335.549,40.112 Z M339.437,52.937 C338.842997,53.6570036 338.132004,54.2824973 337.304,54.8135 C336.475996,55.3445027 335.589505,55.7809983 334.6445,56.123 C333.699495,56.4650017 332.723005,56.7214991 331.715,56.8925 C330.706995,57.0635009 329.708005,57.149 328.718,57.149 C326.827991,57.149 325.086508,56.8295032 323.4935,56.1905 C321.900492,55.5514968 320.523506,54.6155062 319.3625,53.3825 C318.201494,52.1494938 317.297003,50.6240091 316.649,48.806 C316.000997,46.9879909 315.677,44.9000118 315.677,42.542 C315.677,40.6339905 315.969497,38.8520083 316.5545,37.196 C317.139503,35.5399917 317.980995,34.1045061 319.079,32.8895 C320.177005,31.6744939 321.517992,30.7205035 323.102,30.0275 C324.686008,29.3344965 326.46799,28.988 328.448,28.988 C330.086008,28.988 331.602493,29.2624973 332.9975,29.8115 C334.392507,30.3605027 335.598495,31.1524948 336.6155,32.1875 C337.632505,33.2225052 338.428997,34.5004924 339.005,36.0215 C339.581003,37.5425076 339.869,39.2749903 339.869,41.219 C339.869,41.9750038 339.788001,42.4789987 339.626,42.731 C339.463999,42.9830013 339.158002,43.109 338.708,43.109 L320.429,43.109 C320.483,44.8370086 320.721498,46.3399936 321.1445,47.618 C321.567502,48.8960064 322.156996,49.9624957 322.913,50.8175 C323.669004,51.6725043 324.568995,52.3114979 325.613,52.7345 C326.657005,53.1575021 327.826994,53.369 329.123,53.369 C330.329006,53.369 331.368496,53.2295014 332.2415,52.9505 C333.114504,52.6714986 333.865997,52.3700016 334.496,52.046 C335.126003,51.7219984 335.652498,51.4205014 336.0755,51.1415 C336.498502,50.8624986 336.862998,50.723 337.169,50.723 C337.565002,50.723 337.870999,50.8759985 338.087,51.182 L339.437,52.937 Z M364.79,34.28 C364.645999,34.478001 364.502001,34.6309995 364.358,34.739 C364.213999,34.8470005 364.016001,34.901 363.764,34.901 C363.493999,34.901 363.197002,34.7885011 362.873,34.5635 C362.548998,34.3384989 362.148502,34.0910013 361.6715,33.821 C361.194498,33.5509986 360.609503,33.3035011 359.9165,33.0785 C359.223497,32.8534989 358.373005,32.741 357.365,32.741 C356.014993,32.741 354.827005,32.9794976 353.801,33.4565 C352.774995,33.9335024 351.915503,34.6219955 351.2225,35.522 C350.529497,36.4220045 350.007502,37.5109936 349.6565,38.789 C349.305498,40.0670064 349.13,41.4979921 349.13,43.082 C349.13,44.7380083 349.318998,46.2094936 349.697,47.4965 C350.075002,48.7835064 350.610497,49.8634956 351.3035,50.7365 C351.996503,51.6095044 352.833495,52.2754977 353.8145,52.7345 C354.795505,53.1935023 355.897994,53.423 357.122,53.423 C358.292006,53.423 359.254996,53.2835014 360.011,53.0045 C360.767004,52.7254986 361.392498,52.4150017 361.8875,52.073 C362.382502,51.7309983 362.796498,51.4205014 363.1295,51.1415 C363.462502,50.8624986 363.790998,50.723 364.115,50.723 C364.511002,50.723 364.816999,50.8759985 365.033,51.182 L366.383,52.937 C365.788997,53.6750037 365.114004,54.3049974 364.358,54.827 C363.601996,55.3490026 362.787504,55.7854982 361.9145,56.1365 C361.041496,56.4875018 360.128005,56.7439992 359.174,56.906 C358.219995,57.0680008 357.248005,57.149 356.258,57.149 C354.547991,57.149 352.959507,56.8340031 351.4925,56.204 C350.025493,55.5739968 348.752005,54.660506 347.672,53.4635 C346.591995,52.266494 345.746003,50.7950087 345.134,49.049 C344.521997,47.3029913 344.216,45.3140112 344.216,43.082 C344.216,41.0479898 344.499497,39.1670086 345.0665,37.439 C345.633503,35.7109914 346.461495,34.2215063 347.5505,32.9705 C348.639505,31.7194937 349.980492,30.7430035 351.5735,30.041 C353.166508,29.3389965 354.99799,28.988 357.068,28.988 C358.99401,28.988 360.690493,29.2984969 362.1575,29.9195 C363.624507,30.5405031 364.924994,31.4179943 366.059,32.552 L364.79,34.28 Z M376.373,33.065 C377.543006,31.8229938 378.838993,30.8330037 380.261,30.095 C381.683007,29.3569963 383.320991,28.988 385.175,28.988 C386.669007,28.988 387.987494,29.2354975 389.1305,29.7305 C390.273506,30.2255025 391.227496,30.9274955 391.9925,31.8365 C392.757504,32.7455045 393.337998,33.8389936 393.734,35.117 C394.130002,36.3950064 394.328,37.8079923 394.328,39.356 L394.328,56.771 L389.495,56.771 L389.495,39.356 C389.495,37.2859896 389.022505,35.6795057 388.0775,34.5365 C387.132495,33.3934943 385.69701,32.822 383.771,32.822 C382.348993,32.822 381.021506,33.1639966 379.7885,33.848 C378.555494,34.5320034 377.417005,35.4589941 376.373,36.629 L376.373,56.771 L371.54,56.771 L371.54,17 L376.373,17 L376.373,33.065 Z M416.144,43.406 C416.144,45.5660108 415.878503,47.5009914 415.3475,49.211 C414.816497,50.9210085 414.033505,52.3654941 412.9985,53.5445 C411.963495,54.7235059 410.690008,55.6279968 409.178,56.258 C407.665992,56.8880031 405.92901,57.203 403.967,57.203 C402.184991,57.203 400.367009,56.9510025 398.513,56.447 C398.549,55.9249974 398.594,55.4075026 398.648,54.8945 C398.702,54.3814974 398.747,53.8730025 398.783,53.369 C398.819,53.0629985 398.931499,52.8155009 399.1205,52.6265 C399.309501,52.4374991 399.601998,52.343 399.998,52.343 C400.322002,52.343 400.749497,52.4239992 401.2805,52.586 C401.811503,52.7480008 402.526995,52.829 403.427,52.829 C404.615006,52.829 405.676995,52.6490018 406.613,52.289 C407.549005,51.9289982 408.331997,51.3710038 408.962,50.615 C409.592003,49.8589962 410.073498,48.8915059 410.4065,47.7125 C410.739502,46.5334941 410.906,45.1340081 410.906,43.514 L410.906,18.08 L416.144,18.08 L416.144,43.406 Z M439.31,44.459 C437.095989,44.5310004 435.210508,44.7064986 433.6535,44.9855 C432.096492,45.2645014 430.827505,45.6289977 429.8465,46.079 C428.865495,46.5290022 428.154502,47.0599969 427.7135,47.672 C427.272498,48.2840031 427.052,48.9679962 427.052,49.724 C427.052,50.4440036 427.168999,51.0649974 427.403,51.587 C427.637001,52.1090026 427.956498,52.5364983 428.3615,52.8695 C428.766502,53.2025017 429.243497,53.4454992 429.7925,53.5985 C430.341503,53.7515008 430.930997,53.828 431.561,53.828 C432.407004,53.828 433.180996,53.7425009 433.883,53.5715 C434.585004,53.4004991 435.246497,53.1530016 435.8675,52.829 C436.488503,52.5049984 437.082497,52.1180022 437.6495,51.668 C438.216503,51.2179977 438.769997,50.7050029 439.31,50.129 L439.31,44.459 Z M423.785,33.281 C425.297008,31.8229927 426.925991,30.7340036 428.672,30.014 C430.418009,29.2939964 432.352989,28.934 434.477,28.934 C436.007008,28.934 437.365994,29.1859975 438.554,29.69 C439.742006,30.1940025 440.740996,30.8959955 441.551,31.796 C442.361004,32.6960045 442.972998,33.7849936 443.387,35.063 C443.801002,36.3410064 444.008,37.7449923 444.008,39.275 L444.008,56.771 L441.875,56.771 C441.406998,56.771 441.047001,56.6945008 440.795,56.5415 C440.542999,56.3884992 440.345001,56.0870022 440.201,55.637 L439.661,53.045 C438.940996,53.7110033 438.239003,54.3004974 437.555,54.8135 C436.870997,55.3265026 436.151004,55.7584982 435.395,56.1095 C434.638996,56.4605018 433.833504,56.7304991 432.9785,56.9195 C432.123496,57.1085009 431.174005,57.203 430.13,57.203 C429.067995,57.203 428.069005,57.0545015 427.133,56.7575 C426.196995,56.4604985 425.382503,56.015003 424.6895,55.421 C423.996497,54.826997 423.447502,54.0755045 423.0425,53.1665 C422.637498,52.2574955 422.435,51.1820062 422.435,49.94 C422.435,48.8599946 422.731997,47.820505 423.326,46.8215 C423.920003,45.822495 424.882993,44.9360039 426.215,44.162 C427.547007,43.3879961 429.283989,42.7535025 431.426,42.2585 C433.568011,41.7634975 436.195984,41.4800004 439.31,41.408 L439.31,39.275 C439.31,37.1509894 438.851005,35.5445054 437.933,34.4555 C437.014995,33.3664946 435.674009,32.822 433.91,32.822 C432.721994,32.822 431.727504,32.9704985 430.9265,33.2675 C430.125496,33.5645015 429.432503,33.8974982 428.8475,34.2665 C428.262497,34.6355018 427.758502,34.9684985 427.3355,35.2655 C426.912498,35.5625015 426.494002,35.711 426.08,35.711 C425.755998,35.711 425.477001,35.6255009 425.243,35.4545 C425.008999,35.2834991 424.811001,35.0720013 424.649,34.82 L423.785,33.281 Z M456.158,50.183 C457.040004,51.3710059 458.002995,52.2079976 459.047,52.694 C460.091005,53.1800024 461.260994,53.423 462.557,53.423 C465.113013,53.423 467.074993,52.5140091 468.443,50.696 C469.811007,48.8779909 470.495,46.2860168 470.495,42.92 C470.495,41.1379911 470.337502,39.6080064 470.0225,38.33 C469.707498,37.0519936 469.253003,36.0035041 468.659,35.1845 C468.064997,34.3654959 467.336004,33.7670019 466.472,33.389 C465.607996,33.0109981 464.627005,32.822 463.529,32.822 C461.962992,32.822 460.590506,33.1819964 459.4115,33.902 C458.232494,34.6220036 457.148005,35.6389934 456.158,36.953 L456.158,50.183 Z M455.915,33.659 C457.067006,32.2369929 458.398992,31.0940043 459.911,30.23 C461.423008,29.3659957 463.15099,28.934 465.095,28.934 C466.679008,28.934 468.109994,29.235497 469.388,29.8385 C470.666006,30.441503 471.754996,31.3324941 472.655,32.5115 C473.555005,33.6905059 474.247998,35.1529913 474.734,36.899 C475.220002,38.6450087 475.463,40.6519887 475.463,42.92 C475.463,44.9360101 475.193003,46.8124913 474.653,48.5495 C474.112997,50.2865087 473.334505,51.7894937 472.3175,53.0585 C471.300495,54.3275063 470.058507,55.3264964 468.5915,56.0555 C467.124493,56.7845036 465.473009,57.149 463.637,57.149 C461.962992,57.149 460.527506,56.8655028 459.3305,56.2985 C458.133494,55.7314972 457.076005,54.944005 456.158,53.936 L456.158,66.032 L451.325,66.032 L451.325,29.42 L454.214,29.42 C454.898003,29.42 455.320999,29.7529967 455.483,30.419 L455.915,33.659 Z M496.415,44.459 C494.200989,44.5310004 492.315508,44.7064986 490.7585,44.9855 C489.201492,45.2645014 487.932505,45.6289977 486.9515,46.079 C485.970495,46.5290022 485.259502,47.0599969 484.8185,47.672 C484.377498,48.2840031 484.157,48.9679962 484.157,49.724 C484.157,50.4440036 484.273999,51.0649974 484.508,51.587 C484.742001,52.1090026 485.061498,52.5364983 485.4665,52.8695 C485.871502,53.2025017 486.348497,53.4454992 486.8975,53.5985 C487.446503,53.7515008 488.035997,53.828 488.666,53.828 C489.512004,53.828 490.285996,53.7425009 490.988,53.5715 C491.690004,53.4004991 492.351497,53.1530016 492.9725,52.829 C493.593503,52.5049984 494.187497,52.1180022 494.7545,51.668 C495.321503,51.2179977 495.874997,50.7050029 496.415,50.129 L496.415,44.459 Z M480.89,33.281 C482.402008,31.8229927 484.030991,30.7340036 485.777,30.014 C487.523009,29.2939964 489.457989,28.934 491.582,28.934 C493.112008,28.934 494.470994,29.1859975 495.659,29.69 C496.847006,30.1940025 497.845996,30.8959955 498.656,31.796 C499.466004,32.6960045 500.077998,33.7849936 500.492,35.063 C500.906002,36.3410064 501.113,37.7449923 501.113,39.275 L501.113,56.771 L498.98,56.771 C498.511998,56.771 498.152001,56.6945008 497.9,56.5415 C497.647999,56.3884992 497.450001,56.0870022 497.306,55.637 L496.766,53.045 C496.045996,53.7110033 495.344003,54.3004974 494.66,54.8135 C493.975997,55.3265026 493.256004,55.7584982 492.5,56.1095 C491.743996,56.4605018 490.938504,56.7304991 490.0835,56.9195 C489.228496,57.1085009 488.279005,57.203 487.235,57.203 C486.172995,57.203 485.174005,57.0545015 484.238,56.7575 C483.301995,56.4604985 482.487503,56.015003 481.7945,55.421 C481.101497,54.826997 480.552502,54.0755045 480.1475,53.1665 C479.742498,52.2574955 479.54,51.1820062 479.54,49.94 C479.54,48.8599946 479.836997,47.820505 480.431,46.8215 C481.025003,45.822495 481.987993,44.9360039 483.32,44.162 C484.652007,43.3879961 486.388989,42.7535025 488.531,42.2585 C490.673011,41.7634975 493.300984,41.4800004 496.415,41.408 L496.415,39.275 C496.415,37.1509894 495.956005,35.5445054 495.038,34.4555 C494.119995,33.3664946 492.779009,32.822 491.015,32.822 C489.826994,32.822 488.832504,32.9704985 488.0315,33.2675 C487.230496,33.5645015 486.537503,33.8974982 485.9525,34.2665 C485.367497,34.6355018 484.863502,34.9684985 484.4405,35.2655 C484.017498,35.5625015 483.599002,35.711 483.185,35.711 C482.860998,35.711 482.582001,35.6255009 482.348,35.4545 C482.113999,35.2834991 481.916001,35.0720013 481.754,34.82 L480.89,33.281 Z M512.966,33.389 C513.560003,32.7229967 514.189997,32.1200027 514.856,31.58 C515.522003,31.0399973 516.228496,30.5765019 516.9755,30.1895 C517.722504,29.8024981 518.514496,29.505501 519.3515,29.2985 C520.188504,29.091499 521.092995,28.988 522.065,28.988 C523.559007,28.988 524.877494,29.2354975 526.0205,29.7305 C527.163506,30.2255025 528.117496,30.9274955 528.8825,31.8365 C529.647504,32.7455045 530.227998,33.8389936 530.624,35.117 C531.020002,36.3950064 531.218,37.8079923 531.218,39.356 L531.218,56.771 L526.385,56.771 L526.385,39.356 C526.385,37.2859896 525.912505,35.6795057 524.9675,34.5365 C524.022495,33.3934943 522.58701,32.822 520.661,32.822 C519.238993,32.822 517.911506,33.1639966 516.6785,33.848 C515.445494,34.5320034 514.307005,35.4589941 513.263,36.629 L513.263,56.771 L508.43,56.771 L508.43,29.42 L511.319,29.42 C512.003003,29.42 512.425999,29.7529967 512.588,30.419 L512.966,33.389 Z" id="BlockTechJapan" fill="#0F192E"></path>
            <path d="M174.08,76 C175.208,77.032 176.096,78.112 176.744,79.216 L175.4,80.176 C174.704,78.976 173.864,77.896 172.88,76.936 L174.08,76 Z M171.8,77.416 C172.856,78.4 173.744,79.48 174.416,80.68 L173.12,81.592 C172.424,80.416 171.56,79.336 170.552,78.376 L171.8,77.416 Z M155,80.104 L171.152,80.104 L172.4,81.088 C171.416,85.144 169.976,88.48 168.056,91.12 C165.872,94.096 162.944,96.376 159.248,98.008 L157.64,96.088 C160.76,94.696 163.328,92.824 165.296,90.496 C167.12,88.312 168.512,85.624 169.496,82.408 L155,82.408 L155,80.104 Z M180.2,80.92 L197.432,80.92 L197.432,96.352 L180.2,96.352 L180.2,80.92 Z M182.696,83.224 L182.696,94.048 L194.936,94.048 L194.936,83.224 L182.696,83.224 Z M211.208,83.2 C211.856,84.112 212.432,84.976 212.96,85.84 C213.488,86.68 213.992,87.52 214.448,88.384 L212.504,89.584 C211.544,87.784 210.464,86.032 209.288,84.304 L211.208,83.2 Z M218.168,83.824 L220.568,84.232 C219.896,87.616 218.792,90.352 217.256,92.464 C215.48,94.84 212.984,96.592 209.816,97.72 L208.448,95.776 C211.376,94.696 213.632,93.16 215.192,91.168 C216.584,89.344 217.568,86.896 218.168,83.824 Z M206.984,84.52 C208.232,86.248 209.312,88 210.224,89.728 L208.304,90.928 C207.248,89.008 206.144,87.28 205.016,85.696 L206.984,84.52 Z M234.584,77.536 L236.888,78.28 C236.6,79.096 236.264,79.888 235.928,80.656 L243.632,80.656 L245.096,81.424 C244.376,85.456 242.888,88.84 240.632,91.624 C238.328,94.36 235.304,96.472 231.536,97.96 L230.216,95.848 C233.312,94.696 235.856,93.112 237.824,91.096 C240.032,88.888 241.496,86.176 242.264,82.984 L234.656,82.984 C234.344,83.488 234.008,83.968 233.672,84.448 C232.4,86.176 230.792,87.784 228.824,89.296 L227.096,87.664 C228.896,86.248 230.432,84.712 231.704,83.032 C232.976,81.304 233.936,79.456 234.584,77.536 Z M266.984,77.968 L268.28,80.104 C266.408,80.776 264.44,81.328 262.352,81.76 L262.352,85.84 L270.968,85.84 L270.968,88.12 L262.352,88.12 C262.28,90.328 261.632,92.296 260.432,94 C259.28,95.584 257.648,96.904 255.512,97.984 L253.856,96.04 C255.656,95.104 257.048,94.024 258.056,92.8 C259.16,91.408 259.76,89.848 259.856,88.12 L250.976,88.12 L250.976,85.84 L259.856,85.84 L259.856,82.24 C257.672,82.6 255.392,82.864 253.016,83.032 L252.416,80.776 C255.08,80.608 257.672,80.272 260.168,79.792 C262.568,79.312 264.824,78.712 266.984,77.968 Z M278.384,84.904 L291.296,84.904 L291.296,87.064 L286.016,87.064 L286.016,94.432 L292.496,94.432 L292.496,96.592 L277.136,96.592 L277.136,94.432 L283.64,94.432 L283.64,87.064 L278.384,87.064 L278.384,84.904 Z M299.672,86.704 L317.984,86.704 L317.984,89.008 L299.672,89.008 L299.672,86.704 Z M324.416,78.904 C326.696,80.056 329.192,81.64 331.928,83.632 L330.368,85.528 C327.68,83.608 325.28,82.12 323.192,81.016 L324.416,78.904 Z M340.544,82.384 L342.848,83.296 C341.192,87.064 339.008,90.16 336.272,92.608 C333.32,95.176 329.768,96.976 325.592,97.984 L324.44,95.776 C328.112,94.912 331.376,93.28 334.232,90.88 C336.968,88.528 339.056,85.696 340.544,82.384 Z M364.496,79.888 L364.64,82 C362.072,82.264 358.928,82.432 355.184,82.48 C354.512,83.56 353.84,84.496 353.12,85.312 C354.152,84.592 355.184,84.256 356.192,84.256 C357.512,84.256 358.52,84.712 359.192,85.672 C359.312,85.84 359.432,86.032 359.528,86.272 C361.232,85.672 363.2,85.096 365.432,84.568 L366.08,86.728 C363.92,87.16 361.904,87.712 360.032,88.384 C360.056,88.72 360.08,89.104 360.08,89.488 L360.08,93.688 L357.824,93.688 L357.824,89.872 C357.824,89.656 357.8,89.464 357.8,89.272 C354.68,90.616 353.144,91.96 353.144,93.352 C353.144,94.12 353.672,94.696 354.752,95.056 C355.616,95.32 356.816,95.464 358.4,95.464 C360.728,95.464 362.888,95.272 364.856,94.888 L365.048,97.096 C362.84,97.432 360.632,97.624 358.4,97.624 C356.024,97.624 354.2,97.312 352.952,96.712 C351.488,95.992 350.768,94.888 350.768,93.352 C350.768,91.336 352.352,89.536 355.544,87.928 C356.072,87.64 356.672,87.376 357.32,87.112 C356.984,86.488 356.456,86.176 355.784,86.176 C353.84,86.176 351.56,87.712 348.92,90.808 L347.264,89.272 C349.208,87.16 350.744,85.312 351.872,83.68 L352.64,82.48 C351.368,82.48 349.76,82.456 347.792,82.432 L347.816,80.248 C349.976,80.272 351.992,80.296 353.864,80.296 C354.344,79.312 354.776,78.304 355.208,77.272 L357.344,78.088 C357.008,78.856 356.696,79.6 356.36,80.296 C359.624,80.248 362.336,80.104 364.496,79.888 Z M372.992,92.968 C374,93.664 374.96,94.48 375.872,95.44 C376.64,96.232 377.36,97.072 378.032,97.984 L376.472,99.304 C375.848,98.392 375.128,97.552 374.36,96.736 C373.496,95.824 372.584,94.984 371.624,94.216 L372.992,92.968 Z M404.032,76.264 C405.16,77.296 406.048,78.376 406.672,79.48 L405.352,80.44 C404.656,79.24 403.816,78.16 402.808,77.2 L404.032,76.264 Z M401.776,77.776 C402.832,78.736 403.72,79.816 404.392,81.016 L403.096,81.952 C402.424,80.776 401.56,79.696 400.552,78.712 L401.776,77.776 Z M401.824,81.856 L403.192,83.752 C399.64,85.648 395.248,87.328 390.04,88.792 L390.04,92.128 C390.04,93.136 390.328,93.808 390.952,94.168 C391.72,94.6 393.28,94.84 395.68,94.84 C398.344,94.84 400.984,94.672 403.6,94.336 L403.576,96.736 C399.352,96.976 396.784,97.12 395.896,97.12 C392.584,97.12 390.376,96.808 389.296,96.232 C388.144,95.584 387.568,94.288 387.568,92.32 C387.568,86.92 387.592,82.288 387.664,78.424 L390.112,78.424 L390.064,86.392 C394.384,85.24 398.32,83.728 401.824,81.856 Z M426.688,76.408 C427.816,77.44 428.704,78.52 429.352,79.624 L428.032,80.584 C427.312,79.384 426.472,78.304 425.488,77.344 L426.688,76.408 Z M424.312,78.016 C425.368,79 426.256,80.08 426.928,81.28 L425.632,82.216 C424.936,81.016 424.072,79.936 423.064,78.976 L424.312,78.016 Z M412.096,78.448 C415.024,79.24 417.544,80.296 419.656,81.616 L418.288,83.56 C416.416,82.408 414.016,81.424 411.04,80.656 L412.096,78.448 Z M426.376,82.96 L428.704,83.848 C427.216,87.232 425.056,90.136 422.224,92.584 C419.152,95.224 415.6,97 411.568,97.96 L410.416,95.68 C414.136,94.816 417.448,93.184 420.328,90.832 C423.064,88.576 425.08,85.96 426.376,82.96 Z M409.984,83.8 C412.48,84.376 415,85.384 417.52,86.8 L416.224,88.888 C414.136,87.688 411.712,86.704 408.952,85.984 L409.984,83.8 Z M441.616,77.392 L444.112,77.392 L444.112,80.272 L449.536,80.272 L451.024,81.448 C449.296,84.28 446.992,86.824 444.112,89.08 L444.112,97.864 L441.616,97.864 L441.616,90.856 C439.456,92.248 437.032,93.496 434.344,94.624 L433.216,92.56 C436.192,91.312 438.808,89.896 441.112,88.312 C443.656,86.56 445.744,84.64 447.4,82.552 L434.632,82.552 L434.632,80.272 L441.616,80.272 L441.616,77.392 Z M446.272,88.456 C447.352,88.96 448.648,89.656 450.136,90.544 C451.312,91.264 452.56,92.032 453.88,92.896 L452.368,94.816 C451.048,93.952 449.8,93.16 448.648,92.464 C447.16,91.552 445.912,90.856 444.904,90.376 L446.272,88.456 Z M467.488,90.856 C464.944,93.592 461.704,95.944 457.72,97.888 L456.208,95.896 C462.832,92.776 467.512,88.192 470.296,82.096 L458.752,82.096 L458.752,79.792 L472.144,79.792 L473.632,80.776 C472.336,83.944 470.8,86.68 469.048,88.984 C470.512,89.992 471.856,90.976 473.08,91.936 C475.096,93.496 476.704,94.912 477.88,96.208 L475.936,97.816 C474.736,96.52 473.224,95.152 471.4,93.712 C470.176,92.752 468.88,91.792 467.488,90.856 Z M491.32,79.696 C494.056,79.696 496.336,80.512 498.208,82.144 C500.032,83.776 500.944,85.816 500.944,88.264 C500.944,91 500.08,93.16 498.4,94.696 C496.912,95.992 494.56,96.976 491.392,97.648 L490.624,95.464 C493.456,94.936 495.496,94.096 496.744,92.992 C497.944,91.888 498.568,90.304 498.568,88.264 C498.568,86.344 497.8,84.784 496.288,83.584 C495.088,82.624 493.696,82.072 492.112,81.928 L491.584,86.392 C491.176,89.08 490.6,91.168 489.832,92.704 C488.776,94.888 487.384,95.992 485.656,95.992 C484.144,95.992 482.92,95.344 481.984,94.072 C481.12,92.848 480.688,91.36 480.688,89.632 C480.688,86.992 481.6,84.736 483.472,82.84 C485.488,80.728 488.104,79.696 491.32,79.696 Z M485.656,93.808 C487,93.808 488.104,91.816 488.944,87.88 C489.328,86.032 489.616,84.064 489.808,81.976 C488.176,82.216 486.76,82.912 485.536,84.064 C483.88,85.552 483.064,87.424 483.064,89.632 C483.064,90.88 483.328,91.912 483.856,92.704 C484.336,93.424 484.936,93.808 485.656,93.808 Z M513.64,76.744 L515.992,76.744 L515.992,80.896 L524.536,80.896 L524.536,92.488 L522.256,92.488 L522.256,91.12 L515.992,91.12 L515.992,99.16 L513.64,99.16 L513.64,91.12 L507.4,91.12 L507.4,92.488 L505.12,92.488 L505.12,80.896 L513.64,80.896 L513.64,76.744 Z M507.4,88.888 L513.64,88.888 L513.64,83.128 L507.4,83.128 L507.4,88.888 Z M515.992,88.888 L522.256,88.888 L522.256,83.128 L515.992,83.128 L515.992,88.888 Z M536.2,81.448 C536.56,81.448 536.92,81.52 537.28,81.712 C537.784,81.952 538.312,82.36 538.888,82.936 C543.064,87.28 546.88,90.928 550.312,93.856 L548.584,95.8 C544.912,92.632 541.144,88.984 537.304,84.856 C537.016,84.568 536.776,84.352 536.632,84.232 C536.464,84.112 536.344,84.064 536.248,84.064 C536.056,84.064 535.84,84.208 535.6,84.496 C533.296,87.232 531.16,89.584 529.24,91.504 L527.32,89.68 C529.048,88.096 531.208,85.792 533.776,82.816 C534.544,81.904 535.336,81.448 536.2,81.448 Z M556.816,92.92 C557.728,92.92 558.496,93.232 559.144,93.856 C559.792,94.456 560.128,95.2 560.128,96.112 C560.128,97 559.792,97.768 559.144,98.392 C558.496,98.992 557.728,99.304 556.816,99.304 C555.904,99.304 555.112,98.992 554.488,98.416 C553.816,97.792 553.504,97.024 553.504,96.112 C553.504,95.2 553.816,94.432 554.488,93.832 C555.112,93.208 555.904,92.92 556.816,92.92 Z M556.816,94.504 C556.36,94.504 555.976,94.648 555.64,94.984 C555.304,95.272 555.16,95.656 555.16,96.112 C555.16,96.544 555.304,96.928 555.64,97.264 C555.976,97.552 556.36,97.72 556.816,97.72 C557.248,97.72 557.656,97.552 557.992,97.264 C558.304,96.928 558.472,96.544 558.472,96.112 C558.472,95.656 558.304,95.272 557.992,94.984 C557.656,94.648 557.248,94.504 556.816,94.504 Z" id="ブロックチェーンを、ビジネスの中へ。" fill="#0092FF"></path>
            <path d="M118.06812,34.2131185 L101.609004,5.70723024 C99.7325401,2.4530765 95.4846817,0 91.7264131,0 L58.8776138,0 C56.575652,0 54.7027488,0.954171992 53.7413726,2.61863246 C52.7799965,4.28309293 52.8885964,6.38191528 54.0386871,8.3757075 L58.7191648,16.4950703 L46.4901039,16.4950703 C42.7336156,16.4950703 38.4857572,18.9481468 36.607513,22.2005204 L31.4783931,31.0817966 L27.6079639,24.3687694 C24.3161407,18.6615392 24.3161407,18.6615392 22.7387717,18.6615392 C21.1614026,18.6615392 21.1614026,18.6615392 17.8677991,24.3669892 L1.40868313,52.8728775 C-0.469561043,56.125251 -0.469561043,61.0314041 1.40868313,64.2837776 L17.8695794,92.7896659 C21.163183,98.4951159 21.163183,98.4951159 22.7316504,98.4951159 C24.2983375,98.4951159 24.2983375,98.4951159 27.5955016,92.7932262 L31.4801735,86.0748585 L36.6092933,94.9561347 C38.4875375,98.2085083 42.7353959,100.661585 46.4918842,100.661585 L58.5749584,100.661585 L53.972815,108.624292 C52.820944,110.618085 52.7105638,112.716907 53.6701596,114.379587 C54.6297554,116.045828 56.5026586,117 58.8046204,117 L91.6694426,117 C95.425931,117 99.6755697,114.546923 101.552034,111.29455 L117.977323,82.8491875 C119.127414,80.8553953 119.237794,78.7547928 118.276418,77.0921125 C117.316822,75.4258718 115.443919,74.4716998 113.141957,74.4699197 L103.624333,74.462799 L109.50297,64.2819974 C111.381215,61.0296239 111.381215,56.125251 109.50297,52.8710973 L103.594068,42.6368906 L113.724124,42.6440113 C113.747268,42.6440113 113.768632,42.6440113 113.791776,42.6440113 C119.714922,42.6440113 119.720263,42.640451 120.519629,41.3729688 L120.624668,41.1931714 C121.327897,39.8616031 121.327897,39.8616031 118.06812,34.2131185 Z M22.9702141,90.1194084 C22.8900994,90.2582618 22.8117651,90.395335 22.7316504,90.5306281 C22.653316,90.395335 22.5749817,90.2582618 22.4930867,90.1194084 L6.03219035,61.61174 C5.11532234,60.0238269 5.11532234,57.131048 6.03219035,55.5413548 L22.4930867,27.0354665 C22.5749817,26.8930528 22.6568767,26.7524192 22.7369914,26.6135658 C22.817106,26.7524192 22.899001,26.8930528 22.980896,27.0354665 L28.3948681,36.4223115 L18.8968277,52.8728775 C17.0185835,56.125251 17.0185835,61.0314041 18.8968277,64.2819974 L28.3966484,80.7325634 L22.9702141,90.1194084 Z M23.5221152,61.6135202 C22.6052472,60.0256071 22.6052472,57.1328282 23.5221152,55.5449151 L31.4766128,41.7681669 L39.4382317,55.5733978 C40.3550997,57.1630911 40.3533194,60.05587 39.4346711,61.6437831 L31.4819538,75.3991693 L23.5221152,61.6135202 Z M41.2328006,92.2858773 L34.5636985,80.737904 L44.0581783,64.3158207 C45.9382028,61.0634471 45.9399831,56.1590743 44.0635193,52.9049206 L34.5619182,36.4240917 L41.2345809,24.8689976 C41.3093546,24.7390451 41.4108332,24.6126529 41.5034101,24.4862607 L61.1777953,58.6068103 L41.4945085,92.6543728 C41.4037119,92.5333212 41.3057939,92.4122695 41.2328006,92.2858773 Z M113.138397,79.8104345 C113.293285,79.8104345 113.417908,79.8228957 113.517606,79.8389173 C113.482,79.9314862 113.42859,80.0454172 113.352036,80.1789301 L96.926746,108.624292 C96.009878,110.213986 93.504959,111.659485 91.6694426,111.659485 L58.8046204,111.659485 C58.6532927,111.659485 58.5286699,111.648804 58.4325323,111.632783 C58.4681388,111.540214 58.5197682,111.428063 58.5963223,111.29811 L64.7455691,100.661585 L81.9114746,100.661585 C85.6679629,100.661585 89.9176016,98.2085083 91.7940655,94.9561347 L100.544369,79.8015337 L113.138397,79.8104345 Z M67.8326547,95.3210699 L75.0589989,82.8207048 C75.9758669,81.2327917 78.4825662,79.7890725 80.3180826,79.7890725 L94.3773188,79.7997535 L87.1669976,92.2876575 C86.2483493,93.8773507 83.7434303,95.3228501 81.9096942,95.3228501 L67.8326547,95.3228501 L67.8326547,95.3210699 Z M104.877683,61.6135202 L97.4590635,74.4610188 L80.3145219,74.4485576 C76.5598139,74.4485576 72.3119555,76.8980738 70.431931,80.146887 L61.6584834,95.3210699 L46.4883236,95.3210699 C46.376163,95.3210699 46.2551008,95.2997079 46.1393796,95.2890268 L65.7995222,61.2806281 L105.016548,61.3055505 C104.97204,61.4088004 104.932873,61.5191711 104.877683,61.6135202 Z M104.877683,55.5431349 C104.952457,55.6730875 105.011207,55.8226219 105.073519,55.9668158 L65.8030828,55.9418934 L46.1554026,21.8658481 C46.2657828,21.8569472 46.3832843,21.8355852 46.4901039,21.8355852 L61.7991292,21.8355852 L70.4942425,36.9136389 C72.3707063,40.1677926 76.6167844,42.6226493 80.3732727,42.6244294 L97.4252373,42.6351105 L104.877683,55.5431349 Z M67.9643989,21.8355852 L81.9096942,21.8355852 C83.7434303,21.8355852 86.2501296,23.2810845 87.1669976,24.8707778 L94.339932,37.2945956 L80.375053,37.2856947 C78.541317,37.2856947 76.0346177,35.836635 75.11953,34.2469418 L67.9643989,21.8355852 Z M100.508762,37.2981559 L91.7922851,22.2023005 C89.9158213,18.9481468 85.6679629,16.4950703 81.9096942,16.4950703 L64.8862148,16.4950703 L58.665755,5.70901041 C58.589201,5.57549754 58.5357912,5.46156655 58.5001846,5.36899763 C58.5981026,5.35297608 58.7227254,5.34229505 58.8776138,5.34229505 L91.7264131,5.34229505 C93.5601491,5.34229505 96.0668484,6.78779441 96.9837164,8.37748768 L113.442832,36.8833759 C113.524727,37.0257897 113.606622,37.1682034 113.686737,37.3070568 L100.508762,37.2981559 Z" id="Shape-Copy" fill="#0092FF" fill-rule="nonzero"></path>
        </g>
    </g>
</svg>