
<svg width="31px" height="14px" viewBox="0 0 31 14" version="1.1" xmlns="http://www.w3.org/2000/svg" xmlns:xlink="http://www.w3.org/1999/xlink">
    <!-- Generator: Sketch 51.3 (57544) - http://www.bohemiancoding.com/sketch -->
    <desc>Created with Sketch.</desc>
    <defs></defs>
    <g id="Home" stroke="none" stroke-width="1" fill="none" fill-rule="evenodd">
        <g transform="translate(-1251.000000, -1626.000000)" fill="#FFFFFF" fill-rule="nonzero" id="Shape">
            <path d="M1282,1632.87102 C1282,1632.65676 1281.89432,1632.33538 1281.68295,1632.22825 L1275.87045,1626.33621 C1275.34205,1625.9077 1274.70795,1625.9077 1274.28523,1626.22909 C1273.8625,1626.55047 1273.75682,1627.30037 1274.17955,1627.72888 L1278.30114,1631.90687 L1252.1625,1631.90687 C1251.52841,1631.90687 1251,1632.33538 1251,1632.97815 C1251,1633.62092 1251.52841,1634.04943 1252.1625,1634.04943 L1278.30114,1634.04943 L1274.17955,1638.22742 C1273.75682,1638.65593 1273.8625,1639.2987 1274.28523,1639.72721 C1274.70795,1640.15572 1275.55341,1640.04859 1275.87045,1639.62008 L1281.68295,1633.72804 C1281.89432,1633.40666 1282,1633.1924 1282,1632.87102 Z" transform="translate(1266.500000, 1633.000000) rotate(180.000000) translate(-1266.500000, -1633.000000) "></path>
        </g>
    </g>
</svg>