
<svg width="100px" height="100px" viewBox="0 0 100 100" version="1.1" xmlns="http://www.w3.org/2000/svg" xmlns:xlink="http://www.w3.org/1999/xlink">
    <g id="Service" stroke="none" stroke-width="1" fill="none" fill-rule="evenodd">
        <g id="Services" transform="translate(-1224.000000, -5327.000000)" fill="#6EC2FF" fill-rule="nonzero">
            <g id="icon_スマートコントラクト" transform="translate(1224.000000, 5327.000000)">
                <path d="M98.3870968,41.9354839 L88.7096774,41.9354839 C87.8173829,41.9354839 87.0967742,42.6584552 87.0967742,43.5483871 L87.0967742,45.1612903 L48.3870968,45.1612903 C47.9578819,45.1612903 47.5483556,45.3306137 47.2467238,45.6338206 L45.1612903,47.719254 L43.0758569,45.6338206 C42.774225,45.3306137 42.3646988,45.1612903 41.9354839,45.1612903 L12.9032258,45.1612903 L12.9032258,43.5483871 C12.9032258,42.6584552 12.1826171,41.9354839 11.2903226,41.9354839 L1.61290323,41.9354839 C0.720608669,41.9354839 0,42.6584552 0,43.5483871 L0,82.2580645 C0,83.1479964 0.720608669,83.8709677 1.61290323,83.8709677 L11.2903226,83.8709677 C12.1826171,83.8709677 12.9032258,83.1479964 12.9032258,82.2580645 L12.9032258,80.6451613 L25.8340159,80.6451613 C25.8292905,80.7388798 25.8064516,80.8270855 25.8064516,80.920804 C25.8064516,84.327747 28.577054,87.0967742 31.9808468,87.0967742 C32.0855909,87.0967742 32.1840347,87.0723601 32.2872038,87.0660597 C32.2824786,87.1692288 32.2580645,87.2692478 32.2580645,87.3724169 C32.2580645,90.7793599 35.0286669,93.5483871 38.4324597,93.5483871 C38.5372038,93.5483871 38.6356476,93.523973 38.7388167,93.5176726 C38.7340915,93.6208417 38.7096774,93.7208607 38.7096774,93.8240298 C38.7096774,97.2309728 41.4802798,100 44.8840726,100 C46.5339907,100 48.0838899,99.3581464 49.250252,98.1902093 L50,97.4420363 L50.749748,98.1902093 C51.9161101,99.3581464 53.4644343,100 55.1159274,100 C58.5197202,100 61.2903226,97.2309728 61.2903226,93.8240298 C61.2903226,93.7192855 61.2659085,93.6208417 61.2596081,93.5176726 C61.3643524,93.523973 61.4627962,93.5483871 61.5675403,93.5483871 C64.9713331,93.5483871 67.7419355,90.7793599 67.7419355,87.3724169 C67.7419355,87.2676726 67.7175214,87.1692288 67.711221,87.0660597 C67.8159653,87.0723601 67.9144091,87.0967742 68.0191532,87.0967742 C71.422946,87.0967742 74.1935484,84.327747 74.1935484,80.920804 C74.1935484,80.8270855 74.1707095,80.7373046 74.1659841,80.6451613 L87.0967742,80.6451613 L87.0967742,82.2580645 C87.0967742,83.1479964 87.8173829,83.8709677 88.7096774,83.8709677 L98.3870968,83.8709677 C99.2793913,83.8709677 100,83.1479964 100,82.2580645 L100,43.5483871 C100,42.6584552 99.2793913,41.9354839 98.3870968,41.9354839 Z M9.67741935,80.6451613 L3.22580645,80.6451613 L3.22580645,45.1612903 L9.67741935,45.1612903 L9.67741935,80.6451613 Z M12.9032258,48.3870968 L41.2676411,48.3870968 L47.5239415,54.6418222 C48.0807397,55.2001954 48.3870968,55.9404927 48.3870968,56.7272556 C48.3870968,58.3551222 47.0647996,59.6774194 45.4385081,59.6774194 C44.662771,59.6774194 43.9035724,59.3631867 43.3530746,58.8126891 L36.624244,52.0854335 L34.343498,54.3661794 L35.6224798,55.6451613 L21.1630544,70.1045867 C19.9966923,71.2709488 19.3548387,72.820848 19.3548387,74.4691911 C19.3548387,75.5434097 19.6548954,76.5388734 20.1384514,77.4193548 L12.9032258,77.4193548 L12.9032258,48.3870968 Z M46.969506,95.9110383 C46.4190083,96.4599609 45.6613849,96.7741935 44.8840726,96.7741935 C43.257781,96.7741935 41.9354839,95.4518964 41.9354839,93.8240298 C41.9354839,93.0372669 42.2418409,92.2953944 42.7986391,91.7385964 L43.5483871,90.9904234 L47.719254,95.1612903 L46.969506,95.9110383 Z M58.0645161,93.8240298 C58.0645161,95.4518964 56.742219,96.7741935 55.1159274,96.7741935 C54.3401903,96.7741935 53.5809917,96.4599609 53.030494,95.9094633 L44.4115423,87.2936617 C43.8547442,86.7352885 43.5483871,85.9949911 43.5483871,85.2082282 C43.5483871,83.5803617 44.8706843,82.2580645 46.4969758,82.2580645 C47.2727129,82.2580645 48.0319115,82.5722972 48.5824093,83.1227948 L57.2013609,91.7385964 C57.7581591,92.2969696 58.0645161,93.0372669 58.0645161,93.8240298 Z M64.516129,87.3724169 C64.516129,89.0002835 63.1938319,90.3225806 61.5675403,90.3225806 C60.7918032,90.3225806 60.0326046,90.008348 59.4821069,89.4578504 L50.8631552,80.8420488 C50.3063571,80.2836756 50,79.5433782 50,78.7566153 C50,77.1287488 51.3222972,75.8064516 52.9485887,75.8064516 C53.7243258,75.8064516 54.4835244,76.1206843 55.0340222,76.6711819 L63.6529738,85.2869835 C64.209772,85.8453567 64.516129,86.585654 64.516129,87.3724169 Z M68.0191532,83.8709677 C67.2434161,83.8709677 66.4842175,83.5567351 65.9337198,83.0062375 L57.3147681,74.3904359 C56.75797,73.8320627 56.4516129,73.0917653 56.4516129,72.3050024 C56.4516129,70.6771359 57.7739101,69.3548387 59.4002016,69.3548387 C60.1759387,69.3548387 60.9351373,69.6690714 61.4856351,70.219569 L70.1045867,78.8353706 C70.6613849,79.3937438 70.9677419,80.1340411 70.9677419,80.920804 C70.9677419,82.5486706 69.6454448,83.8709677 68.0191532,83.8709677 Z M62.9032258,65.8533895 C62.9032258,64.225523 64.225523,62.9032258 65.8518145,62.9032258 C66.6275516,62.9032258 67.3867502,63.2174585 67.937248,63.767956 L76.5561996,72.3837577 C77.1129978,72.9421308 77.4193548,73.6824282 77.4193548,74.4691911 C77.4193548,76.0970577 76.0970577,77.4193548 74.4707661,77.4193548 C73.695029,77.4193548 72.9358304,77.1051222 72.3853327,76.5546246 L63.766381,67.938823 C63.2095829,67.3804498 62.9032258,66.6401524 62.9032258,65.8533895 Z M79.8615486,77.4193548 C80.3451046,76.5388734 80.6451613,75.5434097 80.6451613,74.4691911 C80.6451613,72.820848 80.0033077,71.2709488 78.8369456,70.1030117 L70.217994,61.4872101 C69.0516319,60.319273 67.5033077,59.6774194 65.8518145,59.6774194 C62.4480218,59.6774194 59.6774194,62.4464466 59.6774194,65.8533895 C59.6774194,65.9581339 59.7018335,66.0565776 59.7081339,66.1597468 C59.6033895,66.1534464 59.5049458,66.1290323 59.4002016,66.1290323 C55.9964089,66.1290323 53.2258065,68.8980595 53.2258065,72.3050024 C53.2258065,72.4097468 53.2502206,72.5081905 53.256521,72.6113597 C53.1517766,72.6050593 53.0533329,72.5806452 52.9485887,72.5806452 C49.544796,72.5806452 46.7741935,75.3496724 46.7741935,78.7566153 C46.7741935,78.8613597 46.7986077,78.9598034 46.8049081,79.0629726 C46.7001637,79.0566722 46.60172,79.0322581 46.4969758,79.0322581 C43.0931831,79.0322581 40.3225806,81.8012853 40.3225806,85.2082282 C40.3225806,86.4423198 40.6840663,87.6212827 41.3534841,88.6238345 L40.5178931,89.4594254 C39.9673954,90.008348 39.209772,90.3225806 38.4324597,90.3225806 C36.8061681,90.3225806 35.483871,89.0002835 35.483871,87.3724169 C35.483871,86.585654 35.790228,85.8437815 36.3470262,85.2869835 L39.8500504,81.7855343 L37.5693044,79.5047883 L34.0662802,83.0078125 C33.5157825,83.5567351 32.7581591,83.8709677 31.9808468,83.8709677 C30.3545552,83.8709677 29.0322581,82.5486706 29.0322581,80.920804 C29.0322581,80.1340411 29.3386151,79.3921685 29.8954133,78.8353706 L33.3984375,75.3339214 L31.1176915,73.0531754 L27.6146673,76.5561996 C27.0641696,77.1051222 26.3065462,77.4193548 25.5292339,77.4193548 C23.9029423,77.4193548 22.5806452,76.0970577 22.5806452,74.4691911 C22.5806452,73.6824282 22.8870022,72.9405556 23.4438004,72.3837577 L37.9032258,57.9243323 L41.0723286,61.0918599 C42.2386907,62.2613722 43.7870149,62.9032258 45.4385081,62.9032258 C48.8423008,62.9032258 51.6129032,60.1341986 51.6129032,56.7272556 C51.6129032,55.0789125 50.9710496,53.5290133 49.8046875,52.3610762 L47.4420363,50 L49.0549395,48.3870968 L87.0967742,48.3870968 L87.0967742,77.4193548 L79.8615486,77.4193548 Z M96.7741935,80.6451613 L90.3225806,80.6451613 L90.3225806,45.1612903 L96.7741935,45.1612903 L96.7741935,80.6451613 Z" id="Shape"></path>
                <path d="M50,32.2580645 C56.2240109,32.2580645 61.2903226,27.1933278 61.2903226,20.9677419 C61.2903226,14.742156 56.2240109,9.67741935 50,9.67741935 C43.7759891,9.67741935 38.7096774,14.742156 38.7096774,20.9677419 C38.7096774,27.1933278 43.7759891,32.2580645 50,32.2580645 Z M50,12.9032258 C54.4465097,12.9032258 58.0645161,16.5212323 58.0645161,20.9677419 C58.0645161,25.4142516 54.4465097,29.0322581 50,29.0322581 C45.5534903,29.0322581 41.9354839,25.4142516 41.9354839,20.9677419 C41.9354839,16.5212323 45.5534903,12.9032258 50,12.9032258 Z" id="Shape"></path>
                <path d="M11.2903226,25.8064516 C13.3899319,25.8064516 15.1642831,24.4534399 15.8321258,22.5806452 L29.0322581,22.5806452 L29.0322581,24.1935484 C29.0322581,25.0834802 29.7528667,25.8064516 30.6451613,25.8064516 L32.9322077,25.8064516 C33.2889679,27.0358177 33.7906375,28.2399823 34.4372165,29.4110698 L32.7305948,31.1176915 C32.0997669,31.7485194 32.0997669,32.7676097 32.7305948,33.3984375 L37.5693044,38.2371472 C38.2001323,38.867975 39.2192226,38.867975 39.8500504,38.2371472 L41.5566722,36.5305254 C42.7277597,37.1755292 43.9319242,37.678774 45.1612903,38.0355343 L45.1612903,40.3225806 C45.1612903,41.2125125 45.881899,41.9354839 46.7741935,41.9354839 L53.2258065,41.9354839 C54.118101,41.9354839 54.8387097,41.2125125 54.8387097,40.3225806 L54.8387097,38.0386845 C56.0917024,37.6819242 57.30453,37.1857673 58.4645917,36.5517893 L60.1499496,38.2371472 C60.7807774,38.867975 61.7998677,38.867975 62.4306956,38.2371472 L66.796875,33.8709677 L74.4904548,33.8709677 C75.1582976,35.7437625 76.9326488,37.0967742 79.0322581,37.0967742 C81.6996913,37.0967742 83.8709677,34.9254978 83.8709677,32.2580645 C83.8709677,29.5906312 81.6996913,27.4193548 79.0322581,27.4193548 C76.9326488,27.4193548 75.1582976,28.7723665 74.4904548,30.6451613 L66.796875,30.6451613 L65.5840474,29.4323337 C66.2180254,28.272272 66.7141823,27.0594444 67.0709425,25.8064516 L69.3548387,25.8064516 C70.2471333,25.8064516 70.9677419,25.0834802 70.9677419,24.1935484 L70.9677419,22.5806452 L84.1678742,22.5806452 C84.8357169,24.4534399 86.6100681,25.8064516 88.7096774,25.8064516 C91.3771107,25.8064516 93.5483871,23.6351752 93.5483871,20.9677419 C93.5483871,18.3003087 91.3771107,16.1290323 88.7096774,16.1290323 C86.6100681,16.1290323 84.8357169,17.482044 84.1678742,19.3548387 L70.9677419,19.3548387 L70.9677419,17.7419355 C70.9677419,16.8520036 70.2471333,16.1290323 69.3548387,16.1290323 L67.0677923,16.1290323 C66.7110321,14.8996661 66.2093625,13.6955016 65.5627835,12.5244141 L67.2694052,10.8177923 C67.9002331,10.1869645 67.9002331,9.16787419 67.2694052,8.53704637 L62.4306956,3.69833669 C61.7998677,3.06750887 60.7807774,3.06750887 60.1499496,3.69833669 L58.4433278,5.40495847 C57.2738155,4.75995464 56.069651,4.25670988 54.8387097,3.8999496 L54.8387097,1.61290323 C54.8387097,0.722971371 54.118101,0 53.2258065,0 L46.7741935,0 C45.881899,0 45.1612903,0.722971371 45.1612903,1.61290323 L45.1612903,3.8967994 C43.9082976,4.25355968 42.69547,4.74971653 41.5354083,5.38369456 L39.8500504,3.69833669 C39.2192226,3.06750887 38.2001323,3.06750887 37.5693044,3.69833669 L33.203125,8.06451613 L25.5095452,8.06451613 C24.8417024,6.19172137 23.0673512,4.83870968 20.9677419,4.83870968 C18.3003087,4.83870968 16.1290323,7.00998609 16.1290323,9.67741935 C16.1290323,12.3448526 18.3003087,14.516129 20.9677419,14.516129 C23.0673512,14.516129 24.8417024,13.1631173 25.5095452,11.2903226 L33.203125,11.2903226 L34.4159526,12.5031502 C33.7819746,13.6632119 33.2858177,14.8760395 32.9290575,16.1290323 L30.6451613,16.1290323 C29.7528667,16.1290323 29.0322581,16.8520036 29.0322581,17.7419355 L29.0322581,19.3548387 L15.8321258,19.3548387 C15.1642831,17.482044 13.3899319,16.1290323 11.2903226,16.1290323 C8.62288931,16.1290323 6.4516129,18.3003087 6.4516129,20.9677419 C6.4516129,23.6351752 8.62288931,25.8064516 11.2903226,25.8064516 Z M88.7096774,19.3548387 C89.5996093,19.3548387 90.3225806,20.0793851 90.3225806,20.9677419 C90.3225806,21.8560988 89.5996093,22.5806452 88.7096774,22.5806452 C87.8197456,22.5806452 87.0967742,21.8560988 87.0967742,20.9677419 C87.0967742,20.0793851 87.8197456,19.3548387 88.7096774,19.3548387 Z M79.0322581,30.6451613 C79.9221899,30.6451613 80.6451613,31.3697077 80.6451613,32.2580645 C80.6451613,33.1464214 79.9221899,33.8709677 79.0322581,33.8709677 C78.1423262,33.8709677 77.4193548,33.1464214 77.4193548,32.2580645 C77.4193548,31.3697077 78.1423262,30.6451613 79.0322581,30.6451613 Z M20.9677419,11.2903226 C20.0778101,11.2903226 19.3548387,10.5657762 19.3548387,9.67741935 C19.3548387,8.7890625 20.0778101,8.06451613 20.9677419,8.06451613 C21.8576738,8.06451613 22.5806452,8.7890625 22.5806452,9.67741935 C22.5806452,10.5657762 21.8576738,11.2903226 20.9677419,11.2903226 Z M32.2580645,19.3548387 L34.1954385,19.3548387 C34.9625125,19.3548387 35.6240548,18.814579 35.7760522,18.063256 C36.1272996,16.3211946 36.8093183,14.6594633 37.7984817,13.1245274 C38.2095829,12.4858242 38.1190145,11.6470829 37.5819052,11.1099736 L36.1517137,9.67741935 L38.7096774,7.11945565 L40.1422317,8.55122218 C40.6809161,9.09069435 41.5196573,9.1789 42.1567855,8.76622359 C43.6901462,7.77706028 45.3518774,7.09661673 47.0955141,6.74379415 C47.8468371,6.59022177 48.3870968,5.92867944 48.3870968,5.16318044 L48.3870968,3.22580645 L51.6129032,3.22580645 L51.6129032,5.16318044 C51.6129032,5.93025444 52.1531629,6.59022177 52.9044859,6.74379415 C54.5937815,7.08559093 56.248425,7.77391008 57.8227381,8.7906375 C58.4614415,9.20016371 59.2986077,9.11274577 59.8372921,8.57406129 L61.2903226,7.11945565 L63.8482863,9.67741935 L62.3952558,11.1304498 C61.8581464,11.6675593 61.7675782,12.5063004 62.1786794,13.1434286 C63.1954071,14.7224673 63.883726,16.3771107 64.2239478,18.061681 C64.3759452,18.814579 65.0374875,19.3548387 65.8045615,19.3548387 L67.7419355,19.3548387 L67.7419355,22.5806452 L65.8045615,22.5806452 C65.0374875,22.5806452 64.3759452,23.1209048 64.2239478,23.8722278 C63.8727004,25.6142893 63.1906817,27.2760206 62.2015183,28.8109565 C61.7904171,29.4496597 61.8809855,30.288401 62.4180948,30.8255103 L63.8482863,32.2580645 L61.2903226,34.8160282 L59.8577683,33.3842617 C59.3206591,32.8471522 58.4803427,32.7581591 57.8432145,33.1692603 C56.3098538,34.1584236 54.6481226,34.8388671 52.9044859,35.1916897 C52.1531629,35.3452621 51.6129032,36.0068044 51.6129032,36.7723034 L51.6129032,38.7096774 L48.3870968,38.7096774 L48.3870968,36.7723034 C48.3870968,36.0052294 47.8468371,35.3452621 47.0955141,35.1916897 C45.4062185,34.8498929 43.751575,34.1615738 42.1772619,33.1448464 C41.5385585,32.7368952 40.7013923,32.8227381 40.1627079,33.3614226 L38.7096774,34.8160282 L36.1517137,32.2580645 L37.6047442,30.8050341 C38.1418536,30.2679246 38.2324218,29.4291835 37.8213206,28.7920552 C36.8045929,27.2130165 36.116274,25.5583732 35.7760522,23.8738028 C35.6240548,23.1209048 34.9625125,22.5806452 34.1954385,22.5806452 L32.2580645,22.5806452 L32.2580645,19.3548387 Z M11.2903226,19.3548387 C12.1802544,19.3548387 12.9032258,20.0793851 12.9032258,20.9677419 C12.9032258,21.8560988 12.1802544,22.5806452 11.2903226,22.5806452 C10.4003907,22.5806452 9.67741935,21.8560988 9.67741935,20.9677419 C9.67741935,20.0793851 10.4003907,19.3548387 11.2903226,19.3548387 Z" id="Shape"></path>
            </g>
        </g>
    </g>
</svg>